<svg xmlns="http://www.w3.org/2000/svg"
     xmlns:xlink="http://www.w3.org/1999/xlink"
     version="1.1"
     height='1000px' width='1000px'
     viewBox='0 0 1000 1000'>
    <style type="text/css">
        <![CDATA[
        .skin_fill{fill:#F6D3BD;}
        .skin_outline{fill:#664B50;}
        .skin_dark{fill:#D6AA87;}
        .skin_halftone{fill:#9E7F66;}
        .skin_freckles{fill:#CAA481;}
        ]]>
    </style>
    <style type="text/css">
        <![CDATA[
        .hair_fill{fill:#B55239;}
        .hair_outline{fill:#95422B;}
        .hair_shadow{fill:#672914;}
        .hair_brow{fill:#AD4E35;}
        ]]>
    </style>
    <style type="text/css">
        <![CDATA[
        .eye_iris{fill:#89CFF0;}
        ]]>
    </style>
    <style type="text/css">
        <![CDATA[
        .bg{fill:#FBFFF2;}
        ]]>
    </style>
    <g id='Background'><rect class='skin_dark' width='100%' height='100%'/></g>
    <pattern id="ear_i" width="48" height="48" x="250" y="750" overflow="visible" patternUnits="userSpaceOnUse" viewBox="4.8 -52.8 48 48">
        <defs>
            <path id="ear_a" d="M4.8-52.8h48v48h-48z"/>
        </defs>
        <clipPath id="ear_b">
            <use overflow="visible" xlink:href="#ear_a"/>
        </clipPath>
        <g class="skin_dark" clip-path="url(#ear_b)">
            <path d="M28.8-57.6c2.7 0 4.8 2.1 4.8 4.8S31.5-48 28.8-48 24-50.2 24-52.8c0-2.7 2.1-4.8 4.8-4.8zM52.8-57.6c2.7 0 4.8 2.1 4.8 4.8S55.5-48 52.8-48 48-50.2 48-52.8c0-2.7 2.1-4.8 4.8-4.8zM28.8-33.6c2.7 0 4.8 2.1 4.8 4.8S31.5-24 28.8-24 24-26.1 24-28.8s2.1-4.8 4.8-4.8zM52.8-33.6c2.7 0 4.8 2.1 4.8 4.8S55.5-24 52.8-24 48-26.1 48-28.8s2.1-4.8 4.8-4.8zM40.8-45.6c2.7 0 4.8 2.1 4.8 4.8S43.5-36 40.8-36 36-38.2 36-40.8c0-2.7 2.1-4.8 4.8-4.8zM16.8-45.6c2.7 0 4.8 2.1 4.8 4.8S19.5-36 16.8-36 12-38.2 12-40.8c0-2.7 2.1-4.8 4.8-4.8zM40.8-21.6c2.7 0 4.8 2.1 4.8 4.8S43.5-12 40.8-12 36-14.1 36-16.8s2.1-4.8 4.8-4.8zM16.8-21.6c2.7 0 4.8 2.1 4.8 4.8S19.5-12 16.8-12 12-14.1 12-16.8s2.1-4.8 4.8-4.8z"/>
        </g>
        <defs>
            <path id="ear_c" d="M4.8-52.8h48v48h-48z"/>
        </defs>
        <clipPath id="ear_d"><use overflow="visible" xlink:href="#ear_c"/></clipPath>
        <g class="skin_dark" clip-path="url(#ear_d)">
            <path d="M4.8-57.6c2.7 0 4.8 2.1 4.8 4.8S7.5-48 4.8-48 0-50.1 0-52.8s2.1-4.8 4.8-4.8zM4.8-33.6c2.7 0 4.8 2.1 4.8 4.8S7.5-24 4.8-24 0-26.1 0-28.8s2.1-4.8 4.8-4.8z"/>
        </g>
        <g>
            <defs><path id="ear_e" d="M4.8-52.8h48v48h-48z"/></defs>
            <clipPath id="ear_f">
                <use overflow="visible" xlink:href="#ear_e"/>
            </clipPath>
            <g class="skin_dark" clip-path="url(#ear_f)">
                <path d="M28.8-9.6c2.7 0 4.8 2.1 4.8 4.8S31.5 0 28.8 0 24-2.2 24-4.8c0-2.7 2.1-4.8 4.8-4.8zM52.8-9.6c2.7 0 4.8 2.1 4.8 4.8S55.5 0 52.8 0 48-2.2 48-4.8c0-2.7 2.1-4.8 4.8-4.8z"/>
            </g>
        </g>
        <g>
            <defs><path id="ear_g" d="M4.8-52.8h48v48h-48z"/></defs>
            <clipPath id="ear_h">
                <use overflow="visible" xlink:href="#ear_g"/>
            </clipPath>
            <path class="skin_dark" d="M4.8-9.6c2.7 0 4.8 2.1 4.8 4.8S7.5 0 4.8 0 0-2.2 0-4.8c0-2.7 2.1-4.8 4.8-4.8z" clip-path="url(#ear_h)"/>
        </g>
    </pattern>
    <path class="skin_fill" d="M358.6 542.6c-18.6-1.7-23.4-2.5-27.2-12.4-10.2-26.2-15.9-31.7-15.9-42.4 0-68.4-5.2-66.2 32.4-84.8l10.7 139.6z"/>
    <pattern id="ear_j" patternTransform="matrix(.26 0 0 -.26 -47478.004 993.389)" xlink:href="#ear_i"/>
    <path fill="url(#ear_j)" d="M336 478.9s-2.1-42.8-3.1-61.8c-8.4 9.7-13.8 14-13.8 23.3 0 49.5-3.6 42.8 21.3 63.8-9.9-14.1-15.2-19.7-4.4-25.3z"/>
    <path class="skin_outline" d="M333.4 430.7c1.7-.1 4.2 47 4.4 48.9 0 .2.1.1-.8.6-12.7 6.7 1.7 14.1 4.9 25.6.6 2.2.4 3.4.2 3.4-.3 0-.5-1.1-1.4-3-4.8-9.8-20-19.7-6.3-28.4-.2-.6-2.7-47-1-47.1z"/>
    <path class="skin_fill" d="M641.4 542.6c18.6-1.7 23.4-2.5 27.2-12.4 10.2-26.2 15.9-31.7 15.9-42.4 0-68.4 5.2-66.2-32.4-84.8l-10.7 139.6z"/>
    <pattern id="ear_k" patternTransform="matrix(-.26 0 0 -.26 31113.844 993.389)" xlink:href="#ear_i"/>
    <path fill="url(#ear_k)" d="M664 478.9s2.1-42.8 3.1-61.8c8.4 9.7 13.8 14 13.8 23.3 0 49.5 3.6 42.8-21.3 63.8 9.9-14.1 15.2-19.7 4.4-25.3z"/>
    <g>
        <path class="skin_outline" d="M665.7 477.9c13.8 8.8-1.4 18.4-6.3 28.4-.9 1.8-1.1 3-1.4 3-.2 0-.4-1.3.2-3.4 1.8-6.7 9.6-14.2 10.1-19.4.4-4.7-6-6.1-5.9-6.8 5.1-99.8 6.2-19.3 3.3-1.8z"/>
    </g>
    <pattern id="face_i" width="48" height="48" y="1000" overflow="visible" patternUnits="userSpaceOnUse" viewBox="4.8 -52.8 48 48">
        <defs>
            <path id="face_a" d="M4.8-52.8h48v48h-48z"/>
        </defs>
        <clipPath id="face_b"><use overflow="visible" xlink:href="#face_a"/></clipPath>
        <g class="skin_dark" clip-path="url(#face_b)">
            <path d="M28.8 0c6.4 0 6.4-9.6 0-9.6-6.3 0-6.4 9.6 0 9.6zM52.8 0c6.4 0 6.4-9.6 0-9.6-6.3 0-6.4 9.6 0 9.6zM28.8-24c6.4 0 6.4-9.6 0-9.6s-6.4 9.6 0 9.6zM52.8-24c6.4 0 6.4-9.6 0-9.6s-6.4 9.6 0 9.6zM40.8-12c6.4 0 6.4-9.6 0-9.6-6.3 0-6.4 9.6 0 9.6zM16.8-12c6.4 0 6.4-9.6 0-9.6-6.3 0-6.4 9.6 0 9.6zM40.8-36c6.4 0 6.4-9.6 0-9.6s-6.4 9.6 0 9.6zM16.8-36c6.4 0 6.4-9.6 0-9.6s-6.4 9.6 0 9.6z"/>
        </g>
        <defs><path id="face_c" d="M4.8-52.8h48v48h-48z"/></defs>
        <clipPath id="face_d"><use overflow="visible" xlink:href="#face_c"/></clipPath>
        <g class="skin_dark" clip-path="url(#face_d)">
            <path d="M4.8 0c6.4 0 6.4-9.6 0-9.6S-1.6 0 4.8 0zM4.8-24c6.4 0 6.4-9.6 0-9.6s-6.4 9.6 0 9.6z"/>
        </g>
        <g>
            <defs><path id="face_e" d="M4.8-52.8h48v48h-48z"/></defs>
            <clipPath id="face_f"><use overflow="visible" xlink:href="#face_e"/></clipPath>
            <g class="skin_dark" clip-path="url(#face_f)"><path d="M28.8-48c6.4 0 6.4-9.6 0-9.6-6.3 0-6.4 9.6 0 9.6zM52.8-48c6.4 0 6.4-9.6 0-9.6-6.3 0-6.4 9.6 0 9.6z"/></g>
        </g>
        <g>
            <defs><path id="face_g" d="M4.8-52.8h48v48h-48z"/></defs>
            <clipPath id="face_h">
                <use overflow="visible" xlink:href="#face_g"/>
            </clipPath>
            <path class="skin_dark" d="M4.8-48c6.4 0 6.4-9.6 0-9.6-6.3 0-6.4 9.6 0 9.6z" clip-path="url(#face_h)"/>
        </g>
    </pattern>
    <path class="skin_fill" d="M659.9 396.5c-.2 0 7.7-168.7-160.1-168.7S339.9 396.5 339.9 396.5v102.9c0 54.9 21.6 92.2 49.3 123.4v29c0 61.4 49.8 111 111 111 61.4 0 111-49.8 111-111V622c57.9-66.3 48.7-107.3 48.7-225.5z"/>
    <pattern id="face_j" patternTransform="matrix(.26 0 0 .26 -64288.102 -2638.264)" xlink:href="#face_i"/>
    <path fill="url(#face_j)" d="M561 671.8c-16.6 14.8-29.1 36-61.1 36-16.3 0-31.8-6.6-43.1-18.3-21.4-22.2-46.3-42.6-67.6-66.7v29c0 61.4 49.8 111 111 111 61.4 0 111-49.8 111-111V622c-13 14.9-29.5 31.1-50.2 49.8z"/>
    <path class="skin_outline" d="M345.4 545.3c-10.6 0-6.1-182.6-5.1-143.1 1.9 70.6.5 98.1 2.9 121.5 1.5 14.5 2.8 21.6 2.2 21.6zM656.6 523.7c2.4-23.4 1-50.9 2.9-121.5 1-39.5 5.5 143.1-5.1 143.1-.6 0 .7-7.1 2.2-21.6z"/>
    <pattern id="face_k" patternTransform="matrix(.26 0 0 .26 -64296.156 -2676.73)" xlink:href="#face_i"/>
    <path fill="url(#face_k)" d="M387.5 541.2c-26.8-26.8-31.8-68.1-31.8-68.1h-5.8c0 48.9-2.4 86.7 46.5 142.6 1.5-31.9 1.6-60.2-8.9-74.5z"/>
    <pattern id="nose_k" width="28.8" height="28.8" x="250" y="750" overflow="visible" patternUnits="userSpaceOnUse" viewBox="1.4 -30.2 28.8 28.8">
        <defs><path id="nose_a" d="M1.4-30.2h28.8v28.8H1.4z"/></defs>
        <clipPath id="nose_b"><use overflow="visible" xlink:href="#nose_a"/></clipPath>
        <g clip-path="url(#nose_b)">
            <g fill="#FFF">
                <path d="M30.2 0c.8 0 1.4-.6 1.4-1.4s-.6-1.4-1.4-1.4-1.4.6-1.4 1.4c0 .8.6 1.4 1.4 1.4zM15.8 0c.8 0 1.4-.6 1.4-1.4s-.6-1.4-1.4-1.4c-.8 0-1.4.6-1.4 1.4 0 .8.6 1.4 1.4 1.4zM30.2-14.4c.8 0 1.4-.6 1.4-1.4s-.6-1.4-1.4-1.4-1.4.6-1.4 1.4c0 .8.6 1.4 1.4 1.4zM15.8-14.4c.8 0 1.4-.6 1.4-1.4s-.6-1.4-1.4-1.4c-.8 0-1.4.6-1.4 1.4 0 .8.6 1.4 1.4 1.4zM8.6-7.2c.8 0 1.4-.6 1.4-1.4S9.4-10 8.6-10c-.8 0-1.4.6-1.4 1.4 0 .8.6 1.4 1.4 1.4zM23-7.2c.8 0 1.4-.6 1.4-1.4S23.8-10 23-10s-1.4.6-1.4 1.4.6 1.4 1.4 1.4zM8.6-21.6c.8 0 1.4-.6 1.4-1.4s-.6-1.4-1.4-1.4c-.8 0-1.4.6-1.4 1.4 0 .8.6 1.4 1.4 1.4zM23-21.6c.8 0 1.4-.6 1.4-1.4s-.6-1.4-1.4-1.4-1.4.6-1.4 1.4c0 .8.6 1.4 1.4 1.4z"/>
            </g>
            <g fill="#FFF">
                <path d="M1.4 0c.8 0 1.4-.6 1.4-1.4s-.6-1.4-1.4-1.4C.6-2.9 0-2.2 0-1.4 0-.6.6 0 1.4 0zM1.4-14.4c.8 0 1.4-.6 1.4-1.4s-.6-1.4-1.4-1.4-1.4.6-1.4 1.4.6 1.4 1.4 1.4z"/>
            </g>
            <g fill="#FFF">
                <path d="M30.2-28.8c.8 0 1.4-.6 1.4-1.4s-.6-1.4-1.4-1.4-1.4.6-1.4 1.4c0 .8.6 1.4 1.4 1.4zM15.8-28.8c.8 0 1.4-.6 1.4-1.4s-.6-1.4-1.4-1.4-1.4.6-1.4 1.4c0 .8.6 1.4 1.4 1.4z"/>
            </g>
            <path fill="#FFF" d="M1.4-28.8c.8 0 1.4-.6 1.4-1.4s-.6-1.4-1.4-1.4C.6-31.7 0-31 0-30.2c0 .8.6 1.4 1.4 1.4z"/>
        </g>
    </pattern>
    <pattern id="nose_m" width="48" height="48" x="250" y="750" overflow="visible" patternUnits="userSpaceOnUse" viewBox="4.8 -52.8 48 48">
        <defs><path id="nose_c" d="M4.8-52.8h48v48h-48z"/></defs>
        <clipPath id="nose_d"><use overflow="visible" xlink:href="#nose_c"/></clipPath>
        <g class="skin_dark" clip-path="url(#nose_d)">
            <path d="M28.8-57.6c2.7 0 4.8 2.1 4.8 4.8S31.5-48 28.8-48 24-50.2 24-52.8c0-2.7 2.1-4.8 4.8-4.8zM52.8-57.6c2.7 0 4.8 2.1 4.8 4.8S55.5-48 52.8-48 48-50.2 48-52.8c0-2.7 2.1-4.8 4.8-4.8zM28.8-33.6c2.7 0 4.8 2.1 4.8 4.8S31.5-24 28.8-24 24-26.1 24-28.8s2.1-4.8 4.8-4.8zM52.8-33.6c2.7 0 4.8 2.1 4.8 4.8S55.5-24 52.8-24 48-26.1 48-28.8s2.1-4.8 4.8-4.8zM40.8-45.6c2.7 0 4.8 2.1 4.8 4.8S43.5-36 40.8-36 36-38.2 36-40.8c0-2.7 2.1-4.8 4.8-4.8zM16.8-45.6c2.7 0 4.8 2.1 4.8 4.8S19.5-36 16.8-36 12-38.2 12-40.8c0-2.7 2.1-4.8 4.8-4.8zM40.8-21.6c2.7 0 4.8 2.1 4.8 4.8S43.5-12 40.8-12 36-14.1 36-16.8s2.1-4.8 4.8-4.8zM16.8-21.6c2.7 0 4.8 2.1 4.8 4.8S19.5-12 16.8-12 12-14.1 12-16.8s2.1-4.8 4.8-4.8z"/>
        </g>
        <defs><path id="nose_e" d="M4.8-52.8h48v48h-48z"/></defs>
        <clipPath id="nose_f">
            <use overflow="visible" xlink:href="#nose_e"/>
        </clipPath>
        <g class="skin_dark" clip-path="url(#nose_f)">
            <path d="M4.8-57.6c2.7 0 4.8 2.1 4.8 4.8S7.5-48 4.8-48 0-50.1 0-52.8s2.1-4.8 4.8-4.8zM4.8-33.6c2.7 0 4.8 2.1 4.8 4.8S7.5-24 4.8-24 0-26.1 0-28.8s2.1-4.8 4.8-4.8z"/>
        </g>
        <g>
            <defs><path id="nose_g" d="M4.8-52.8h48v48h-48z"/></defs>
            <clipPath id="nose_h">
                <use overflow="visible" xlink:href="#nose_g"/>
            </clipPath>
            <g class="skin_dark" clip-path="url(#nose_h)">
                <path d="M28.8-9.6c2.7 0 4.8 2.1 4.8 4.8S31.5 0 28.8 0 24-2.2 24-4.8c0-2.7 2.1-4.8 4.8-4.8zM52.8-9.6c2.7 0 4.8 2.1 4.8 4.8S55.5 0 52.8 0 48-2.2 48-4.8c0-2.7 2.1-4.8 4.8-4.8z"/>
            </g>
        </g>
        <g>
            <defs><path id="nose_i" d="M4.8-52.8h48v48h-48z"/></defs>
            <clipPath id="nose_j"><use overflow="visible" xlink:href="#nose_i"/></clipPath>
            <path class="skin_dark" d="M4.8-9.6c2.7 0 4.8 2.1 4.8 4.8S7.5 0 4.8 0 0-2.2 0-4.8c0-2.7 2.1-4.8 4.8-4.8z" clip-path="url(#nose_j)"/>
        </g>
    </pattern>
    <pattern id="nose_l" patternTransform="matrix(-.3732 0 0 -.3494 48272.988 4253.03)" xlink:href="#nose_k"/>
    <path fill="url(#nose_l)" d="M521.3 456.4l8.3-7.2c-.2 57.7 1.9 76.8-5.2 87.4 0 0-4.6-10.5-13.2-13.5-3.6-2.1-4.6-7.9-1.7-11.3 4.4-6.6 6.2-8.6 6.2-12.5l-3.3-20.5c-.7-7 3.5-17.7 8.9-22.4zm-33 87h23.4c-2.2-12.7-21.2-12.7-23.4 0z"/>
    <pattern id="nose_n" patternTransform="matrix(.2261 0 0 -.2117 -64395.031 -7351.635)" xlink:href="#nose_m"/>
    <path fill="url(#nose_n)" d="M487.4 478.7c-2.4 18.8-5 21-1.6 26.3 5 7.6 6.7 9.2 6.1 12.9-1.2 8.1-9.9 3.8-16.5 18.7-6.8-10.1-4.9-26.7-5.2-87.4 4.1 3.4 19.3 13.8 17.2 29.5z"/>
    <g>
        <path class="skin_outline" d="M514.1 498.9c0-14.6 6.4-.9 2 4.9-3.4 4.5-1.9-3-2-4.9zM487.2 509c7.5 9-.9-5.8-1.2-7.2-.3-1.3-.3-2.5-.3-2.4 5.1-33.4 1.5-37.8-2.5-7.1-1 8.8-1.8 9.6 4 16.7zm43.3 35c-1-5.7-7.8-9.3-5.3-6.5 2.4 2.7 3.9 5.3 3.4 8.9-1.7 6.9-1.5.1-10.2 5.9-5.7 3.8-7.5 12.2-24.7 8.8-4.1-.8-6.1-3.7-8.2-5.8-4.2-4.8-10.5-6.5-12.5-5.9-.9.4-3.4-7 3.5-11.9 5.8-12.7 12.4-13.5 12.1-14.4-.1-.5-7.9 1.1-14.2 12.6-8.2 4.7-9.3 19.8 8.2 21.6 4.3 4.3 5.7 7 13.4 7.6 12.9.9 15.6-1.7 20.6-7.2 1-1 15.9-1.4 13.9-13.7z"/>
    </g>
    <pattern id="mouth_i" width="28.8" height="28.8" x="250" y="750" overflow="visible" patternUnits="userSpaceOnUse" viewBox="1.4 -30.2 28.8 28.8">
        <defs><path id="mouth_a" d="M1.4-30.2h28.8v28.8H1.4z"/></defs>
        <clipPath id="mouth_b"><use overflow="visible" xlink:href="#mouth_a"/></clipPath>
        <g class="skin_halftone" clip-path="url(#mouth_b)">
            <path d="M30.2 0c1.9 0 1.9-2.8 0-2.8S28.3 0 30.2 0zM15.8 0c1.9 0 1.9-2.8 0-2.8S13.9 0 15.8 0zM30.2-14.4c1.9 0 1.9-2.8 0-2.8s-1.9 2.8 0 2.8zM15.8-14.4c1.9 0 1.9-2.8 0-2.8s-1.9 2.8 0 2.8zM8.6-7.2c1.9 0 1.9-2.8 0-2.8s-1.9 2.8 0 2.8zM23-7.2c1.9 0 1.9-2.8 0-2.8s-1.9 2.8 0 2.8zM8.6-21.6c1.9 0 1.9-2.8 0-2.8s-1.9 2.8 0 2.8zM23-21.6c1.9 0 1.9-2.8 0-2.8s-1.9 2.8 0 2.8z"/>
        </g>
        <defs><path id="mouth_c" d="M1.4-30.2h28.8v28.8H1.4z"/></defs>
        <clipPath id="mouth_d"><use overflow="visible" xlink:href="#mouth_c"/></clipPath>
        <g class="skin_halftone" clip-path="url(#mouth_d)">
            <path d="M1.4 0c1.9 0 1.9-2.8 0-2.8C-.4-3-.6 0 1.4 0zM1.4-14.4c1.9 0 1.9-2.8 0-2.8s-1.9 2.8 0 2.8z"/>
        </g>
        <g>
            <defs><path id="mouth_e" d="M1.4-30.2h28.8v28.8H1.4z"/></defs>
            <clipPath id="mouth_f"><use overflow="visible" xlink:href="#mouth_e"/></clipPath>
            <g class="skin_halftone" clip-path="url(#mouth_f)">
                <path d="M30.2-28.8c1.9 0 1.9-2.8 0-2.8s-1.9 2.8 0 2.8zM15.8-28.8c1.9 0 1.9-2.8 0-2.8s-1.9 2.8 0 2.8z"/>
            </g>
        </g>
        <g>
            <defs><path id="mouth_g" d="M1.4-30.2h28.8v28.8H1.4z"/></defs>
            <clipPath id="mouth_h"><use overflow="visible" xlink:href="#mouth_g"/></clipPath>
            <path class="skin_halftone" d="M1.4-28.8c1.9 0 1.9-2.8 0-2.8-1.8-.2-2 2.8 0 2.8z" clip-path="url(#mouth_h)"/>
        </g>
    </pattern>
    <path fill="#241F20" d="M500 591.5c-26.4 0-58.6-5-58.6-1.7 0 9.4 32.2 34.6 58.6 34.6s58.6-25.2 58.6-34.6c.1-3.3-32.2 1.7-58.6 1.7z"/>
    <path fill="#F7F3E8" d="M537 593.8c0-3.8 1.8-3.6-7.3-.1.1 4.6.2-3.7-13.7 1.9v-1c-19.2 6.1-11.9 6.4-32 0v1c-14.9-6-13.9 3.6-13.7-1.9-8.8-3.3-7.3-3.7-7.3.1-9.6 0-7.8-1.2-7 3.7.4 2.4 2 4.8 4.3 5 .1 0-1.1.9-.1 4.2-1.1 6.5-2.5 4.9 5.3 6 .3 1.3-.8.6 7.5 3.1 0-.9-.1 0 .2.6 1 2.8 3.1 2.3 10.9 2 0 1.4-2.4 1.3 16-.6 18.4 1.8 16 2 16 .6 8 .3 9.9.8 10.9-2 .2-.6.2-1.5.2-.6 8.5-2.5 7.3-1.9 7.5-3.1 7.7-1.2 6.4.4 5.3-6 1.2-3.7-.4-4.2-.1-4.2 2.3-.1 3.9-2.6 4.3-5 .7-4.9 2.4-3.7-7.2-3.7zm-37 14.9c-.2 0-.1.1 0 0 .1.1.1 0 0 0z"/>
    <path fill="#E4EBDF" d="M500 605.4c.3 0 0 3.5-3.5 3.5-9.4.2-10.8.6-12.2-1.3-1.5-2 1.1-.6-4.8-.6-5.6 0-7.5.4-9.1-1.9-1-1.5-.2-2.1-2.3-.6-2.7 2.1-4.4.4-4.9-2.6-.2-1.1.3-.4-1 .4-1 .6.5-.5.7-1 .9-.6-.1-.6.6-.2.6 2.6 1.6 4.8 3.8 3.3 5.1-4.2 1.3 1.8 7.4 1.8 8.1 0 7.5.1 8.1-.2 2.2-1.2 1.4 2.5 4.7 2.3 9.9.1 10.7.6 11.9-1.2.6-1 .5-1.7.6-1.7z"/>
    <path fill="#EB8874" d="M523.8 590.1c-28.6 6.7-17.7 7.1-47.7 0l-21.7-.3c2.7 14.9-1.5-.5 7.8 5.8.3.2.7.1.9-.3 2.8-5.7 6 3.3 7.1 1.1 2.3-4.4 10.2-1.9 13.2 1.5 1.4 1.6 6.3-4.5 16.4 3.3 0 .1-.1.1 0 0 .1.1 0 .1 0 0 10.2-7.8 15-1.7 16.4-3.3 3-3.4 10.8-5.9 13.2-1.5 1.2 2.2 4.3-6.9 7.1-1.1.2.3.6.5.9.3 9.3-6.2 5.2 9.1 7.8-5.8l-21.4.3zM540.7 611.8c-2.2-12.9 2 3.4-5.7-2.2-3.4 8.4-7.3 1.1-8.5 3.6-2.2 4.4-7.6 5.7-10.2 4-.3-.2-.6-.2-.9 0-4.8 3-13.9-.2-16.2.2-15.7 2.5-14.2-1.2-15.6-.2-2.5 1.7-8 .4-10.2-4-1.2-2.5-5.2 4.8-8.5-3.6-7.7 5.6-3.5-10.6-5.7 2.2l16.9 10h47.7l16.9-10z"/>
    <path fill="#E4EBDF" d="M499.9 605.4c.1 0 .2 2.2 2.3 2.8.5.2.8.1 2.8.1 7.4-.1 9.2.4 10.3-1.7.4-.9 1-1.1 1.6-.9 1.6.5-1.5.4 6.9.4 2.2 0 4.4.3 5.5-2.1 2.2-3.9 4.3 4.4 6.7-1.1.9-2 .2-2.3 1.2-1.6.2.6 1.1 1.1 1 1.2-.1.1-.8-.4-1.1-.7-.5-.6.2-.7-.6 1.4-2.3 5.8-5.3-.9-6.5 1.3-2.2 5.2-13.2 1-14 2.6-1.4 2.7-3.8 2-11 1.9-6.1-.2-5.2-3.6-5.1-3.6z"/>
    <path class="skin_dark" d="M552.5 591.8c-22.3 33.8-82.6 33.9-105 0l-12.5-5.7c18.9 76.3 111.1 76.5 130 0l-12.5 5.7z"/>
    <path class="skin_dark" d="M517.1 584c-4.1.4-15 3.3-17.1 3.3s-13-2.9-17.1-3.3c-12.6-1.3-33.3 4.7-47.9 2.2 15.8 10.3 26.8 5.3 45.7 8.7 18.7 3.4 16.9 4 38.7 0 18.6-3.4 29.9 1.6 45.7-8.7-13.8 2.6-35.4-3.5-48-2.2z"/>
    <pattern id="mouth_j" patternTransform="matrix(.5029 0 0 .4437 -31727.492 2888.526)" xlink:href="#mouth_i"/>
    <path fill="url(#mouth_j)" d="M517.1 584c-4.1.4-15 3.3-17.1 3.3s-13-2.9-17.1-3.3c-12.6-1.3-33.3 4.7-47.9 2.2 15.8 10.3 26.8 5.3 45.7 8.7 18.7 3.4 16.9 4 38.7 0 18.6-3.4 29.9 1.6 45.7-8.7-13.8 2.6-35.4-3.5-48-2.2z"/>
    <g>
        <path class="skin_outline" d="M565 586.2c.1.2-2.5 2.2-4.2 3.2-7.9 4.5-12.7 4.2-35 6.1-14.3 1.4-14.4 3.4-25.8 3.4-10.4 0-13.1-2.2-25.8-3.4-21-1.8-26.7-1.4-35-6.1-1.2-.7-4.4-2.9-4.2-3.2.1-.2 2.4 1.2 4.7 2.3 9.2 4.2 12.3 3 34.7 4.6 14.5 1.2 14.3 3.2 25.6 3.2 10.3 0 12.7-2.2 25.6-3.2 22.1-1.6 25.6-.4 34.7-4.6 2.3-1.1 4.6-2.6 4.7-2.3z"/>
    </g>
    <path class="skin_dark" d="M374.5 488.3zm6 0zm42 0zm6 0zm-57 6zm6-.4c.5 0 .5.8 0 .8s-.5-.8 0-.8zm6-.2c.8 0 .8 1.2 0 1.2s-.8-1.2 0-1.2zm6 .2c.5 0 .5.8 0 .8s-.5-.8 0-.8zm6 .2c.3 0 .3.4 0 .4s-.3-.4 0-.4zm6 .1c.1 0 .1.2 0 .2s-.1-.2 0-.2zm6-.1c.3 0 .3.4 0 .4s-.3-.4 0-.4zm6-.2c.5 0 .5.8 0 .8s-.5-.8 0-.8zm6-.2c.8 0 .8 1.2 0 1.2s-.8-1.2 0-1.2zm6 .2c.5 0 .5.8 0 .8s-.5-.8 0-.8zm6 .4zm-57 5.8c.3 0 .3.4 0 .4s-.3-.4 0-.4zm6-.5c.9 0 .9 1.4 0 1.4s-.9-1.4 0-1.4zm6-.3c1.3 0 1.3 2 0 2s-1.3-2 0-2zm6-.1c1.5 0 1.5 2.2 0 2.2s-1.5-2.2 0-2.2zm6-.1c1.6 0 1.6 2.4 0 2.4s-1.6-2.4 0-2.4zm6 0c1.6 0 1.6 2.4 0 2.4s-1.6-2.4 0-2.4zm6 0c1.6 0 1.6 2.4 0 2.4s-1.6-2.4 0-2.4zm6 .2c1.3 0 1.3 2 0 2s-1.3-2 0-2zm6 .3c.9 0 .9 1.4 0 1.4s-.9-1.4 0-1.4zm6 .4c.4 0 .4.6 0 .6s-.4-.6 0-.6zm-57 6.3zm6-.4c.5 0 .5.8 0 .8s-.5-.8 0-.8zm6-.4c1.1 0 1.1 1.6 0 1.6s-1.1-1.6 0-1.6zm6-.3c1.5 0 1.5 2.2 0 2.2s-1.5-2.2 0-2.2zm6-.1c1.6 0 1.6 2.4 0 2.4s-1.6-2.4 0-2.4zm6 0c1.6 0 1.6 2.4 0 2.4s-1.6-2.4 0-2.4zm6 0c1.6 0 1.6 2.4 0 2.4s-1.6-2.4 0-2.4zm6 .1c1.5 0 1.5 2.2 0 2.2s-1.5-2.2 0-2.2zm6 .2c1.2 0 1.2 1.8 0 1.8s-1.2-1.8 0-1.8zm6 .4c.7 0 .7 1 0 1s-.7-1 0-1zm6 .5zm-57 5.9c.1 0 .1.2 0 .2s-.1-.2 0-.2zm6-.4c.7 0 .7 1 0 1s-.7-1 0-1zm6-.3c1.1 0 1.1 1.6 0 1.6s-1.1-1.6 0-1.6zm6-.2c1.3 0 1.3 2 0 2s-1.3-2 0-2zm6-.1c1.5 0 1.5 2.2 0 2.2s-1.5-2.2 0-2.2zm6 0c1.5 0 1.5 2.2 0 2.2s-1.5-2.2 0-2.2zm6 .1c1.3 0 1.3 2 0 2s-1.3-2 0-2zm6 .1c1.2 0 1.2 1.8 0 1.8s-1.2-1.8 0-1.8zm6 .4c.7 0 .7 1 0 1s-.7-1 0-1zm6 .4c.1 0 .1.2 0 .2s-.1-.2 0-.2zm-51 6.1zm6-.3c.4 0 .4.6 0 .6s-.4-.6 0-.6zm6-.4c.9 0 .9 1.4 0 1.4s-.9-1.4 0-1.4zm6-.1c1.1 0 1.1 1.6 0 1.6s-1.1-1.6 0-1.6zm6-.1c1.2 0 1.2 1.8 0 1.8s-1.2-1.8 0-1.8zm6 0c1.2 0 1.2 1.8 0 1.8s-1.2-1.8 0-1.8zm6 .2c.9 0 .9 1.4 0 1.4s-.9-1.4 0-1.4zm6 .4c.4 0 .4.6 0 .6s-.4-.6 0-.6zm6 .3zm-33 5.9c.1 0 .1.2 0 .2s-.1-.2 0-.2zm6-.1c.3 0 .3.4 0 .4s-.3-.4 0-.4zm6 0c.3 0 .3.4 0 .4s-.3-.4 0-.4zm6 .1c.1 0 .1.2 0 .2s-.1-.2 0-.2zm160.6-35.9zm6 0zm42 0zm6 0zm-57 6zm6-.4c.5 0 .5.8 0 .8s-.5-.8 0-.8zm6-.2c.8 0 .8 1.2 0 1.2s-.8-1.2 0-1.2zm6 .2c.5 0 .5.8 0 .8s-.5-.8 0-.8zm6 .2c.3 0 .3.4 0 .4s-.3-.4 0-.4zm6 .1c.1 0 .1.2 0 .2s-.1-.2 0-.2zm6-.1c.3 0 .3.4 0 .4s-.3-.4 0-.4zm6-.2c.5 0 .5.8 0 .8s-.5-.8 0-.8zm6-.2c.8 0 .8 1.2 0 1.2s-.8-1.2 0-1.2zm6 .2c.5 0 .5.8 0 .8s-.5-.8 0-.8zm6 .4zm-57 5.8c.3 0 .3.4 0 .4s-.3-.4 0-.4zm6-.5c.9 0 .9 1.4 0 1.4s-.9-1.4 0-1.4zm6-.3c1.3 0 1.3 2 0 2s-1.3-2 0-2zm6-.1c1.5 0 1.5 2.2 0 2.2s-1.5-2.2 0-2.2zm6-.1c1.6 0 1.6 2.4 0 2.4s-1.6-2.4 0-2.4zm6 0c1.6 0 1.6 2.4 0 2.4s-1.6-2.4 0-2.4zm6 0c1.6 0 1.6 2.4 0 2.4s-1.6-2.4 0-2.4zm6 .2c1.3 0 1.3 2 0 2s-1.3-2 0-2zm6 .3c.9 0 .9 1.4 0 1.4s-.9-1.4 0-1.4zm6 .4c.4 0 .4.6 0 .6s-.4-.6 0-.6zm-57 6.3zm6-.4c.5 0 .5.8 0 .8s-.5-.8 0-.8zm6-.4c1.1 0 1.1 1.6 0 1.6s-1.1-1.6 0-1.6zm6-.3c1.5 0 1.5 2.2 0 2.2s-1.5-2.2 0-2.2zm6-.1c1.6 0 1.6 2.4 0 2.4s-1.6-2.4 0-2.4zm6 0c1.6 0 1.6 2.4 0 2.4s-1.6-2.4 0-2.4zm6 0c1.6 0 1.6 2.4 0 2.4s-1.6-2.4 0-2.4zm6 .1c1.5 0 1.5 2.2 0 2.2s-1.5-2.2 0-2.2zm6 .2c1.2 0 1.2 1.8 0 1.8s-1.2-1.8 0-1.8zm6 .4c.7 0 .7 1 0 1s-.7-1 0-1zm6 .5zm-57 5.9c.1 0 .1.2 0 .2s-.1-.2 0-.2zm6-.4c.7 0 .7 1 0 1s-.7-1 0-1zm6-.3c1.1 0 1.1 1.6 0 1.6s-1.1-1.6 0-1.6zm6-.2c1.3 0 1.3 2 0 2s-1.3-2 0-2zm6-.1c1.5 0 1.5 2.2 0 2.2s-1.5-2.2 0-2.2zm6 0c1.5 0 1.5 2.2 0 2.2s-1.5-2.2 0-2.2zm6 .1c1.3 0 1.3 2 0 2s-1.3-2 0-2zm6 .1c1.2 0 1.2 1.8 0 1.8s-1.2-1.8 0-1.8zm6 .4c.7 0 .7 1 0 1s-.7-1 0-1zm6 .4c.1 0 .1.2 0 .2s-.1-.2 0-.2zm-51 6.1zm6-.3c.4 0 .4.6 0 .6s-.4-.6 0-.6zm6-.4c.9 0 .9 1.4 0 1.4s-.9-1.4 0-1.4zm6-.1c1.1 0 1.1 1.6 0 1.6s-1.1-1.6 0-1.6zm6-.1c1.2 0 1.2 1.8 0 1.8s-1.2-1.8 0-1.8zm6 0c1.2 0 1.2 1.8 0 1.8s-1.2-1.8 0-1.8zm6 .2c.9 0 .9 1.4 0 1.4s-.9-1.4 0-1.4zm6 .4c.4 0 .4.6 0 .6s-.4-.6 0-.6zm6 .3zm-33 5.9c.1 0 .1.2 0 .2s-.1-.2 0-.2zm6-.1c.3 0 .3.4 0 .4s-.3-.4 0-.4zm6 0c.3 0 .3.4 0 .4s-.3-.4 0-.4zm6 .1c.1 0 .1.2 0 .2s-.1-.2 0-.2z"/>
    <pattern id="eye_i" width="48" height="48" x="250" y="750" overflow="visible" patternUnits="userSpaceOnUse" viewBox="4.8 -52.8 48 48">
        <defs><path id="eye_a" d="M4.8-52.8h48v48h-48z"/></defs>
        <clipPath id="eye_b"><use overflow="visible" xlink:href="#eye_a"/></clipPath>
        <g class="skin_dark" clip-path="url(#eye_b)">
            <path d="M28.8-57.6c2.7 0 4.8 2.1 4.8 4.8S31.5-48 28.8-48 24-50.2 24-52.8c0-2.7 2.1-4.8 4.8-4.8zM52.8-57.6c2.7 0 4.8 2.1 4.8 4.8S55.5-48 52.8-48 48-50.2 48-52.8c0-2.7 2.1-4.8 4.8-4.8zM28.8-33.6c2.7 0 4.8 2.1 4.8 4.8S31.5-24 28.8-24 24-26.1 24-28.8s2.1-4.8 4.8-4.8zM52.8-33.6c2.7 0 4.8 2.1 4.8 4.8S55.5-24 52.8-24 48-26.1 48-28.8s2.1-4.8 4.8-4.8zM40.8-45.6c2.7 0 4.8 2.1 4.8 4.8S43.5-36 40.8-36 36-38.2 36-40.8c0-2.7 2.1-4.8 4.8-4.8zM16.8-45.6c2.7 0 4.8 2.1 4.8 4.8S19.5-36 16.8-36 12-38.2 12-40.8c0-2.7 2.1-4.8 4.8-4.8zM40.8-21.6c2.7 0 4.8 2.1 4.8 4.8S43.5-12 40.8-12 36-14.1 36-16.8s2.1-4.8 4.8-4.8zM16.8-21.6c2.7 0 4.8 2.1 4.8 4.8S19.5-12 16.8-12 12-14.1 12-16.8s2.1-4.8 4.8-4.8z"/>
        </g>
        <defs><path id="eye_c" d="M4.8-52.8h48v48h-48z"/></defs>
        <clipPath id="eye_d"><use overflow="visible" xlink:href="#eye_c"/></clipPath>
        <g class="skin_dark" clip-path="url(#eye_d)">
            <path d="M4.8-57.6c2.7 0 4.8 2.1 4.8 4.8S7.5-48 4.8-48 0-50.1 0-52.8s2.1-4.8 4.8-4.8zM4.8-33.6c2.7 0 4.8 2.1 4.8 4.8S7.5-24 4.8-24 0-26.1 0-28.8s2.1-4.8 4.8-4.8z"/>
        </g>
        <g>
            <defs><path id="eye_e" d="M4.8-52.8h48v48h-48z"/></defs>
            <clipPath id="eye_f"><use overflow="visible" xlink:href="#eye_e"/></clipPath>
            <g class="skin_dark" clip-path="url(#eye_f)">
                <path d="M28.8-9.6c2.7 0 4.8 2.1 4.8 4.8S31.5 0 28.8 0 24-2.2 24-4.8c0-2.7 2.1-4.8 4.8-4.8zM52.8-9.6c2.7 0 4.8 2.1 4.8 4.8S55.5 0 52.8 0 48-2.2 48-4.8c0-2.7 2.1-4.8 4.8-4.8z"/>
            </g>
        </g>
        <g>
            <defs><path id="eye_g" d="M4.8-52.8h48v48h-48z"/></defs>
            <clipPath id="eye_h"><use overflow="visible" xlink:href="#eye_g"/></clipPath>
            <path class="skin_dark" d="M4.8-9.6c2.7 0 4.8 2.1 4.8 4.8S7.5 0 4.8 0 0-2.2 0-4.8c0-2.7 2.1-4.8 4.8-4.8z" clip-path="url(#eye_h)"/>
        </g>
    </pattern>
    <path fill="#FFF" d="M403.1 449c1.3 6.4 7.8 13.2 19.1 15 3 .5 4.2-1.6 25.8-1.6 2.4 0 11.8-6.9 10.4-5-21.3-16.7-43-18.2-55.3-8.4z"/>
    <path class="eye_iris" d="M450 451.5c-10.5-6.3-20.8-9-29.7-8.6-4.5 6.4-4.2 15.5 2.1 21.1 8.3 1.4 13.5-1 23.6-1 .1 0 4.4-3.3 4-11.5z"/>
    <path d="M422.8 465.1c-5.7-.5-10.4-3.9-10-4.3.4-.4 3.5 1.8 10.2 2.4.1 0 25-2.1 25-.9 0 1.2-23.3 3.1-25.2 2.8z"/>
    <pattern id="eye_j" patternTransform="rotate(180 27248.039 -3600.826) scale(.252)" xlink:href="#eye_i"/>
    <path fill="url(#eye_j)" d="M396.3 411.5c-10.1-1.7-27.5.1-27.5.1s-3.8 29.8 31.5 26.6c35.3-19.3 58.1 19.1 58.1 19.1 12.2 0 13.1-13.3 13.1-13.3-25.9 12.6-46.5-27.7-75.2-32.5z"/>
    <path d="M445.7 443.5c9.2 4.9 13.2 13 12.6 13.8-.6.8-27.6-25.3-55.2-8.3 10.4 15.3-.3 4.4-2.2 1.7 0 0-7.1-1.2-10.8-7.8 10 2.5 27.8-13.3 55.6.6z"/>
    <path d="M440.6 452.4c0 9.3-14 9.3-14 0s14-9.3 14 0z"/>
    <path class="skin_outline" d="M449 443.6c-.7 1.2-14.3-9.3-32.1-9.9-3.6-.1-5.8.2-5.9-.1-.6-1.6 16.5-5.3 33.4 6.1.7.4 4.9 3.5 4.6 3.9z"/>
    <path fill="#8C7561" d="M471.5 444.1c-25.9 12.6-46.5-27.7-75.2-32.5-10.1-1.7-27.5.1-27.5.1s23.5-25.2 46.4-10c43.7 28.8 32.5 42.4 56.3 42.4z"/>
    <g>
        <path fill="#FFF" d="M596.9 449c-1.3 6.4-7.8 13.2-19.1 15-3 .5-4.2-1.6-25.8-1.6-2.4 0-11.8-6.9-10.4-5 21.3-16.7 43-18.2 55.3-8.4z"/>
        <path class="eye_iris" d="M550 451.5c10.5-6.3 20.8-9 29.7-8.6 4.5 6.4 4.2 15.5-2.1 21.1-8.3 1.4-13.5-1-23.6-1-.1 0-4.4-3.3-4-11.5z"/>
        <path d="M577.2 465.1c5.7-.5 10.4-3.9 10-4.3-.4-.4-3.5 1.8-10.2 2.4-.1 0-25-2.1-25-.9 0 1.2 23.3 3.1 25.2 2.8z"/>
        <pattern id="eye_k" patternTransform="matrix(.252 0 0 -.252 -70864.46 -7201.651)" xlink:href="#eye_i"/>
        <path fill="url(#eye_k)" d="M603.7 411.5c10.1-1.7 27.5.1 27.5.1s3.8 29.8-31.5 26.6c-35.3-19.3-58.1 19.1-58.1 19.1-12.2 0-13.1-13.3-13.1-13.3 25.9 12.6 46.5-27.7 75.2-32.5z"/>
        <path d="M554.3 443.5c-9.2 4.9-13.2 13-12.6 13.8s27.6-25.3 55.2-8.3c-10.4 15.3.3 4.4 2.2 1.7 0 0 7.1-1.2 10.8-7.8-10 2.5-27.8-13.3-55.6.6z"/>
        <path d="M559.4 452.4c0 9.3 14 9.3 14 0s-14-9.3-14 0z"/>
        <path class="skin_outline" d="M551 443.6c-.3-.5 6.8-6.7 17.7-10.1 11-3.4 20.7-1 20.3.1-.2.7-7.8-1.2-19.5 2.4-10.5 3.2-18 8.4-18.5 7.6z"/>
        <path fill="#8C7561" d="M528.5 444.1c25.9 12.6 46.5-27.7 75.2-32.5 10.1-1.7 27.5.1 27.5.1s-23.5-25.2-46.4-10c-43.7 28.8-32.5 42.4-56.3 42.4z"/>
    </g>
    <g>
        <path class="skin_outline" d="M486.1 441c-.2-.6 2.5-1.1 5.1-6 1.5-2.9 4.6-11.9 3.5-4.9-1.8 9.6-8.4 11.8-8.6 10.9z"/>
    </g>
    <g>
        <path class="skin_outline" d="M513.9 441c-.1.5-4.1-.2-6.6-5.2-1.9-3.5-2.5-8.2-1.9-8.3.8-.2 2.5 8.2 6.8 11.9 1 .9 1.8 1.4 1.7 1.6z"/>
    </g>
    <pattern id="hair_i" width="28.8" height="28.8" x="250" y="750" overflow="visible" patternUnits="userSpaceOnUse" viewBox="1.4 -30.2 28.8 28.8">
        <defs><path id="hair_a" d="M1.4-30.2h28.8v28.8H1.4z"/></defs>
        <clipPath id="hair_b"><use overflow="visible" xlink:href="#hair_a"/></clipPath>
        <g clip-path="url(#hair_b)">
            <g fill="#FFF">
                <path d="M30.2 0c.8 0 1.4-.6 1.4-1.4s-.6-1.4-1.4-1.4-1.4.6-1.4 1.4c0 .8.6 1.4 1.4 1.4zM15.8 0c.8 0 1.4-.6 1.4-1.4s-.6-1.4-1.4-1.4c-.8 0-1.4.6-1.4 1.4 0 .8.6 1.4 1.4 1.4zM30.2-14.4c.8 0 1.4-.6 1.4-1.4s-.6-1.4-1.4-1.4-1.4.6-1.4 1.4c0 .8.6 1.4 1.4 1.4zM15.8-14.4c.8 0 1.4-.6 1.4-1.4s-.6-1.4-1.4-1.4c-.8 0-1.4.6-1.4 1.4 0 .8.6 1.4 1.4 1.4zM8.6-7.2c.8 0 1.4-.6 1.4-1.4S9.4-10 8.6-10c-.8 0-1.4.6-1.4 1.4 0 .8.6 1.4 1.4 1.4zM23-7.2c.8 0 1.4-.6 1.4-1.4S23.8-10 23-10s-1.4.6-1.4 1.4.6 1.4 1.4 1.4zM8.6-21.6c.8 0 1.4-.6 1.4-1.4s-.6-1.4-1.4-1.4c-.8 0-1.4.6-1.4 1.4 0 .8.6 1.4 1.4 1.4zM23-21.6c.8 0 1.4-.6 1.4-1.4s-.6-1.4-1.4-1.4-1.4.6-1.4 1.4c0 .8.6 1.4 1.4 1.4z"/>
            </g>
            <g fill="#FFF">
                <path d="M1.4 0c.8 0 1.4-.6 1.4-1.4s-.6-1.4-1.4-1.4C.6-2.9 0-2.2 0-1.4 0-.6.6 0 1.4 0zM1.4-14.4c.8 0 1.4-.6 1.4-1.4s-.6-1.4-1.4-1.4-1.4.6-1.4 1.4.6 1.4 1.4 1.4z"/></g><g fill="#FFF"><path d="M30.2-28.8c.8 0 1.4-.6 1.4-1.4s-.6-1.4-1.4-1.4-1.4.6-1.4 1.4c0 .8.6 1.4 1.4 1.4zM15.8-28.8c.8 0 1.4-.6 1.4-1.4s-.6-1.4-1.4-1.4-1.4.6-1.4 1.4c0 .8.6 1.4 1.4 1.4z"/></g><path fill="#FFF" d="M1.4-28.8c.8 0 1.4-.6 1.4-1.4s-.6-1.4-1.4-1.4C.6-31.7 0-31 0-30.2c0 .8.6 1.4 1.4 1.4z"/>
        </g>
    </pattern>
    <pattern id="hair_g" width="28.8" height="28.8" x="250" y="750" overflow="visible" patternUnits="userSpaceOnUse" viewBox="1.4 -30.2 28.8 28.8">
        <defs><path id="hair_c" d="M1.4-30.2h28.8v28.8H1.4z"/></defs>
        <clipPath id="hair_d"><use overflow="visible" xlink:href="#hair_c"/></clipPath>
        <g class="hair_shadow" clip-path="url(#hair_d)">
            <path d="M30.2 0c.8 0 1.4-.6 1.4-1.4s-.6-1.4-1.4-1.4-1.4.6-1.4 1.4c0 .8.6 1.4 1.4 1.4zM15.8 0c.8 0 1.4-.6 1.4-1.4s-.6-1.4-1.4-1.4c-.8 0-1.4.6-1.4 1.4 0 .8.6 1.4 1.4 1.4zM30.2-14.4c.8 0 1.4-.6 1.4-1.4s-.6-1.4-1.4-1.4-1.4.6-1.4 1.4c0 .8.6 1.4 1.4 1.4zM15.8-14.4c.8 0 1.4-.6 1.4-1.4s-.6-1.4-1.4-1.4c-.8 0-1.4.6-1.4 1.4 0 .8.6 1.4 1.4 1.4zM8.6-7.2c.8 0 1.4-.6 1.4-1.4S9.4-10 8.6-10c-.8 0-1.4.6-1.4 1.4 0 .8.6 1.4 1.4 1.4zM23-7.2c.8 0 1.4-.6 1.4-1.4S23.8-10 23-10s-1.4.6-1.4 1.4.6 1.4 1.4 1.4zM8.6-21.6c.8 0 1.4-.6 1.4-1.4s-.6-1.4-1.4-1.4c-.8 0-1.4.6-1.4 1.4 0 .8.6 1.4 1.4 1.4zM23-21.6c.8 0 1.4-.6 1.4-1.4s-.6-1.4-1.4-1.4-1.4.6-1.4 1.4c0 .8.6 1.4 1.4 1.4z"/>
        <g>
            <path d="M1.4 0c.8 0 1.4-.6 1.4-1.4s-.6-1.4-1.4-1.4C.6-2.9 0-2.2 0-1.4 0-.6.6 0 1.4 0zM1.4-14.4c.8 0 1.4-.6 1.4-1.4s-.6-1.4-1.4-1.4-1.4.6-1.4 1.4.6 1.4 1.4 1.4z"/>
        </g>
        <g>
            <path d="M30.2-28.8c.8 0 1.4-.6 1.4-1.4s-.6-1.4-1.4-1.4-1.4.6-1.4 1.4c0 .8.6 1.4 1.4 1.4zM15.8-28.8c.8 0 1.4-.6 1.4-1.4s-.6-1.4-1.4-1.4-1.4.6-1.4 1.4c0 .8.6 1.4 1.4 1.4z"/>
        </g>
            <path d="M1.4-28.8c.8 0 1.4-.6 1.4-1.4s-.6-1.4-1.4-1.4C.6-31.7 0-31 0-30.2c0 .8.6 1.4 1.4 1.4z"/>
        </g>
    </pattern>
    <pattern id="hair_e" width="28.8" height="28.8" x="250" y="750" overflow="visible" patternUnits="userSpaceOnUse" viewBox="1.4 -30.2 28.8 28.8">
        <g fill="#FFF">
            <path d="M30.2 0c.8 0 1.4-.6 1.4-1.4s-.6-1.4-1.4-1.4-1.4.6-1.4 1.4c0 .8.6 1.4 1.4 1.4zM15.8 0c.8 0 1.4-.6 1.4-1.4s-.6-1.4-1.4-1.4c-.8 0-1.4.6-1.4 1.4 0 .8.6 1.4 1.4 1.4zM30.2-14.4c.8 0 1.4-.6 1.4-1.4s-.6-1.4-1.4-1.4-1.4.6-1.4 1.4c0 .8.6 1.4 1.4 1.4zM15.8-14.4c.8 0 1.4-.6 1.4-1.4s-.6-1.4-1.4-1.4c-.8 0-1.4.6-1.4 1.4 0 .8.6 1.4 1.4 1.4zM8.6-7.2c.8 0 1.4-.6 1.4-1.4S9.4-10 8.6-10c-.8 0-1.4.6-1.4 1.4 0 .8.6 1.4 1.4 1.4zM23-7.2c.8 0 1.4-.6 1.4-1.4S23.8-10 23-10s-1.4.6-1.4 1.4.6 1.4 1.4 1.4zM8.6-21.6c.8 0 1.4-.6 1.4-1.4s-.6-1.4-1.4-1.4c-.8 0-1.4.6-1.4 1.4 0 .8.6 1.4 1.4 1.4zM23-21.6c.8 0 1.4-.6 1.4-1.4s-.6-1.4-1.4-1.4-1.4.6-1.4 1.4c0 .8.6 1.4 1.4 1.4z"/>
        </g>
        <g fill="#FFF">
            <path d="M1.4 0c.8 0 1.4-.6 1.4-1.4s-.6-1.4-1.4-1.4C.6-2.9 0-2.2 0-1.4 0-.6.6 0 1.4 0zM1.4-14.4c.8 0 1.4-.6 1.4-1.4s-.6-1.4-1.4-1.4-1.4.6-1.4 1.4.6 1.4 1.4 1.4z"/>
        </g>
        <g fill="#FFF">
            <path d="M30.2-28.8c.8 0 1.4-.6 1.4-1.4s-.6-1.4-1.4-1.4-1.4.6-1.4 1.4c0 .8.6 1.4 1.4 1.4zM15.8-28.8c.8 0 1.4-.6 1.4-1.4s-.6-1.4-1.4-1.4-1.4.6-1.4 1.4c0 .8.6 1.4 1.4 1.4z"/>
        </g>
        <path fill="#FFF" d="M1.4-28.8c.8 0 1.4-.6 1.4-1.4s-.6-1.4-1.4-1.4C.6-31.7 0-31 0-30.2c0 .8.6 1.4 1.4 1.4z"/>
    </pattern>
    <path fill="#242422" d="M723.2 175.2c65.2 70.6 101.2 72.3 170.3 107.9 93.5 48.2 48.5 201.2-16.1 201.2H706.9c-59.9 0-12.2-144.9-206.9-144.9S353 484.3 293.1 484.3H122.6c-64.7 0-109.6-152.9-16.1-201.2 69.1-35.6 105.1-37.4 170.3-107.9h446.4z"/>
    <path fill="#344163" d="M500 339.4c194.7 0 147 144.9 206.9 144.9h181.5c59.9 0 91-160.4-23.6-204.5C699.6 216.2 701.5 60.3 500 60.3S300.4 216.2 135.2 279.8c-114.6 44.1-83.5 204.5-23.6 204.5h181.5c59.9 0 12.2-144.9 206.9-144.9z"/>
    <path fill="#E9BB3D" d="M864.8 279.8C699.6 216.2 701.5 60.3 500 60.3S300.4 216.2 135.2 279.8c-114.6 44.1-83.5 204.5-23.6 204.5H139c-55.7 0-84.6-149.1 21.9-190.1 153.5-59.1 151.8-204 339.1-204s185.6 144.9 339.1 204c106.5 41 77.6 190.1 21.9 190.1h27.4c59.9 0 91-160.4-23.6-204.5z"/>
    <path fill="#D19B37" d="M742.1 232.3c21.4 20 46.1 38.8 77.8 53.7l18.4-17.9c-34.4-17.1-60.8-38.4-84-60.8l-12.2 25z"/>
    <path fill="#242422" d="M791.6 377.6c-32-32.1-48.8-52.6-85.3-67.9l-41.5-17.4c-9.3-3.9-12.7-15.3-7.1-23.6l40.4-60.1c5.6-8.3 17.4-9.5 24.5-2.4 32 32.1 48.8 52.6 85.3 67.9l41.5 17.4c9.3 3.9 12.7 15.3 7.1 23.6l-40.4 60.1c-5.6 8.3-17.4 9.5-24.5 2.4z"/>
    <path fill="#344163" d="M787.3 366.9c-28.1-28.1-42.8-46-74.7-59.4l-36.3-15.2c-8.1-3.4-11.1-13.4-6.2-20.7l35.4-52.6c4.9-7.3 15.3-8.3 21.5-2.1 28.1 28.1 42.8 46 74.7 59.4l36.3 15.2c8.1 3.4 11.1 13.4 6.2 20.7l-35.4 52.6c-4.9 7.3-15.3 8.3-21.5 2.1z"/>
    <path fill="#E9BB3D" d="M808.6 247.1l-73.5 85.8-10.6-7.6c62.1-102.5 62.4-99.4 57.2-103.2-14-10.1-19.5-16.3-23.2-10.2-67.1 113.1-65.1 106.8-62.4 112 16.3 30.7 15.8 32 20.9 32.5 29.7 3.1 30.9 4.2 34.2.5 84.6-96.1 86.2-94.5 80-99-14.5-10.5-18.7-15.4-22.6-10.8z"/>
    <path fill="#D19B37" d="M747.1 339.9c-16.8 19.8-46.8-5.5-30-25.4 16.8-19.9 46.8 5.5 30 25.4z"/>
    <path fill="#E9BB3D" d="M747 337.9c-15.6 18.4-43.5-5.1-27.9-23.6 15.6-18.4 43.5 5.1 27.9 23.6z"/>
    <path fill="#D19B37" d="M715.2 316.8c-16.8 19.8 13.2 45.3 30 25.4 8.2-9.7-8.3 14.8-25.8 0-17.3-14.7 3.6-34.7-4.2-25.4z"/>
    <pattern id="hair_f" patternTransform="rotate(180 27354.02 3316.413) scale(.416)" xlink:href="#hair_e"/>
    <path fill="url(#hair_f)" d="M686.3 203.8c-17.9 26.6-49.6 73.9-72.9 109-26.1-12.5-62.1-20.7-113.3-20.7V110.3c97 2.5 141.4 45.5 186.2 93.5zm-523 178.4c4.4-11.6 12-19.9 20-25.8 13.6-10 17.7-28.8 5.3-43.6-71.1 20.2-69.7 69.4-69.7 69.4h44.4z"/>
    <g class="hair_fill">
        <path d="M378 656.5c-17.9-12.6-12.3-67.9-14.5-98.4 3.9 21.5 1.8 80.6 5.7 79.9.3 0-.4-5.1-.5-7.2-1.4-15.6-.3-32.3-.6-48.8-.8-42.5-18.7-71.5-18.7-122.9v-53.3C341 418.3 329 449 329 449c-36.9 12.9-22.5 40.7-21.4 57.1-3.4 16.4-25 29.5-33.1 56.8-12.2 40.6 15 89.9 57.6 99.8 1.4.3 17.4-6.1 17.4-6.2 0-.1-16 6.2-17.3 5.7-50.9-17.7-69.8-71.5-50.7-110.4-12.3 38.8 15 88.5 67.9 104.7 0-38-3.9-9.9 17-.1 4.1 1.9 8.6 2.5 8.7 2 .2-.8-10.3-1.9-18.6-13.6 8.8 9.5 21.5 11.7 21.5 11.7zM721.1 585.5c-2.4-24.7-16.2-33.8-24.7-46.8-11.4-17.2 5.4-28.3 7.4-42.7 4-29.8-22.9-41.1-37-59.9-3.4-30.1-18.5-91.2-86.3-104.2-80.3-15.4-115.1-4.1-128.1 3.3-6.7-2.8-14.6-5.1-24.2-6.8 5.2 31.4 30.5 64 60.3 77.2 14.2 5.8-.5-1-12.9-9.8-10.3-7.1-21.9-18.7-31.1-33 18.4 22.6 48.5 38.4 73.8 47.9-6.9-6.3-12.2-12.7-16.6-19.1 12.5 8.8 24.4 13.7 38.3 18.2 29.7 9.1-36.2-14.5-42.6-25 65.1 39.7 152.3 46.7 152.2 52.6-1.7 99.4-33.4 123-35.6 161.1-1.1 20.5 7.9 33.4 8.6 33 .8-.5-13.3-16.3-3.5-49.7 7.7-26.5 20-38.4 28.1-90.4-8.6 85.5-39.1 97.8-9.1 154.9-4.1 6.9-7.9 10.6-7.5 11 .5.6 12.1-8.4 19.8-31.8-1.6 11.9-7.9 25-12.9 30.5 22.5-.9 74-32.4 74-73.6 0-24.4-12.8-30.8-17.3-43.1 8.6 14.4 21.6 22.2 24.4 46.4 2.2 21.3-6.3 32.6-5.2 33.1.5.3 9.4-13 7.7-33.3z"/>
    </g>
    <pattern id="hair_h" patternTransform="matrix(.3974 0 0 -.3974 -97546.922 -48597.656)" xlink:href="#hair_g"/>
    <path fill="url(#hair_h)" d="M327.7 449.8c-2.7 10.8-6.5 18.2-8.8 34.4-3.3-14.9-4.5-28.5 8.8-34.4zm-34.8 125.4c-6.7-39.3 17.3-42 17.3-57.2 0-4.8-1.6-10.4-2.4-14.7-.5 24.8-41.3 40.5-14.9 71.9zm30.1 2.6c13.5-21.6-1.7-49.6-3.3-71.9-.6 6 .4 11.8.4 17.7 0 9.6-3.3 15.8-3.3 24.2-.1 10.8 6.8 19.3 6.2 30zm6.7 33.3c0 20 8.1 29.2 19.7 40.3l-.4-13.6c-10.7-11.3-16.3-31.3-7.8-57.1-7.9 8.1-11.5 19.2-11.5 30.4zm14.9-40c6.8-19.1 2-34.8-1.7-54.3 0 6.8.8 13.5.8 20.2 0 8.4-2.6 12.3-2.2 18.2.4 5.4 2.7 10.4 3.1 15.9zm-2.7-94.2c-.1-19.7-.1-38.3.1-57.8-8.3 17.9-14.1 25.1-.1 57.8zm167.6-111c34.6 22.3 81.6 30.7 82 30.8-4.9-3.1-84.5-46.2-102.5-48.5 7.1 5.5 12.7 12.7 20.5 17.7zm88 11c14.4 10.2 40.7 27.9 64.2 51.9 0-.2-9-23.5-24.8-41.7-28.6-32.8-65.7-40.3-95.5-45.2 2.3 1.1 64.6 21.8 86.7 47.7-9.7-7.4-19.2-11.1-30.6-12.7zm51.5 78.5c13.1 12.2 17.1 30.7 18.3 48.2.6-23 9.2-55.1-17.6-64.8 0 3.8-.7 14-.7 16.6zm21 173.3c14.3-8 22.3-27.2 22.3-44 0-15.3-10.6-30.3-9.1-28.9.2-.9 9.3 25-2.4 50.3.2-10.9-.1-20.5-3.7-30.7-1 18.1-5.8 36.6-19.5 49.5 10.1-5.4 16.6-13.6 21.3-23.9-.6 9.7-4.5 19.1-8.9 27.7z"/>
    <g>
        <path class="hair_outline" d="M599.4 397.6c-.1 1-31.1-1.6-64.3-17.2-31.4-15.1-54.9-38-54.1-38.8.8-.9 19.4 19.3 55.2 36.5 37.9 17.7 63.3 18 63.2 19.5zM673.1 443.5c-.9.7-13.7-17.4-40.5-40-27.1-22.6-46.9-32-46.4-33 .6-1.1 41 19.4 71.2 53.2 1.8 1.8 16.7 19.1 15.7 19.8zM658.7 484.3c1.1.4-5.3 8.8-2.7 43.9 1.9 27.8 8.2 49.2.4 79.7-2.3 9.2-6.8 20.4-7.5 20.1-.8-.3 7.1-15.2 8.6-43.2 1.2-27.6-6.4-50.5-3.8-79.7 1.1-13.6 4.7-20.9 5-20.8zM670.6 559.6c-.8.3-6.1-13-5.7-34.5.4-22 5.2-60.4-.7-74.3-1.1-2.6-3.4-5.3-1.1-3.2 12.7 13 2.1 70.8 4.7 95.6 1 10.2 3.2 16.2 2.8 16.4zM667.1 631.6c-.6-.9 13.7-8.8 20.4-27.7 6.8-19 .7-34 1.8-34.3.7-.3 7.5 16.2.7 35.2-6.5 18.3-22.4 27.7-22.9 26.8z"/>
        <path class="hair_outline" d="M476.7 370.5c1.9-1.9 10.8 20.6 108.2 47.7 44.1 12.3 64.6 14.2 79.2 28.3 9.6 8 17.7 30.2 16.9 30.5-.5.2-7.7-21-18.2-29.2-14.7-13.6-35-15-78.7-27.2-86.9-24.1-108-49.5-107.4-50.1zM342.1 480.2c-1.7 0-1.7-56.4 0-56.4s1.7 56.4 0 56.4zM370 653.9c-.2.3-18.2-8.2-27.9-26.1-15.1-29.6-1.4-43.7 2.8-64.5 4.7-22.3-3.5-31.2-3.2-61.9.3-20.5.7 8.8 5 31.1 8.9 46.3-17.8 51-5.6 87.9 10.6 25.4 29.5 32.5 28.9 33.5zM307.6 548.4c-.8-.1 1.3-12.1.7-27-.5-14.9-3.4-26.7-2.6-26.9 1-.3 6.4 16.7 5 37.4-.6 9.3-2.5 16.6-3.1 16.5zM328.3 638.2c-2.2-.6 7.8-9.4-15.4-29.9-6.1-5.4-11.1-9.7-15.6-17.3-17.4-29.6 2.3-57.5 3.5-56.6.7.5-18.5 25.9-1.2 55.3 4.3 7.4 9.2 11.6 14.9 16.9 21.9 19.8 13.9 31.6 13.8 31.6zM321.4 579.8c-1.7-1.1 10.6-8.4 3-42.5-6.2-28.2-11-47.5-.4-78.7 3.8-11.1 8.6-19.5 8.9-19.3.9.4-8.7 16.6-11.8 42.2-3.5 32.9 5.6 46 7.5 67.6 1.9 20.6-6.8 31.1-7.2 30.7z"/>
    </g>
    <pattern id="hair_j" patternTransform="matrix(.4998 .01366 -.01366 .4998 -4194.318 -3991.21)" xlink:href="#hair_i"/>
    <path fill="url(#hair_j)" d="M355.4 614.6c-1.3-2.5-2.4-4.8-3.2-7.6-3.2 9.7-.2 19.2.4 23.5-11.3-14.4-11.9-32.9-4.1-49.8 1.1 12 12.2 16.9 6.9 33.9zm-29.3-129.9c-8.3 22.3 7.7 43.2 7.7 65.5 0 6.6.2-6.9.2-10.8 0-16.7-7-35-7.9-54.7zm-25.5 66.8c-9.9 18.7-1.9 35.6 13.2 50.2-1.8-8.2-6-15.7-7.2-24.1 16.8 15.5-4.5-1.1 1.2-24-4 7.9-6.6 13-5.5 21.8-4.1-8.1-4.4-16.1-1.7-23.9zm346.3-10.2c-12.2 29.4-20.3 62.1-7.3 90.7 3.6-19.5 6.9-82.3-1-31.5.3-12.1 3-31.1 8.3-59.2zm44.9-31.5c15-18.4 7-32-6.9-50.3 6.2 13.9 4.9 24.2-.2 38.5 5.7-2.3 7.9-6.4 9.9-12 1.5 7.8 0 16.4-2.8 23.8zm-18.8-1.7c-4.7 16-2 32.4 2.6 48.5 1.1-16.2-1-32.4-2.6-48.5zM579.3 403c-39.4-10.2-85.1-30.7-112.2-54.8 1.2 4.2.7 7.5 1.8 14-6.3-.4-13.7-4-18.5-8 10.5 16.1 30.1 32.7 47.6 40.9-8.1-9.4-18.2-17.2-24.4-28.2 26.5 16.9 66.3 34.2 105.7 36.1z"/>
</svg>