<svg xmlns="http://www.w3.org/2000/svg" xmlns:xlink="http://www.w3.org/1999/xlink" version="1.1" height='1000px' width='1000px' viewBox='0 0 1000 1000'><style type="text/css">.skin_fill{fill:#C68863;} .skin_outline{fill:#61444C;} .skin_dark{fill:#A06868;} .skin_halftone{fill:#754A49;} .skin_freckles{fill:#A16C66;} </style><style type="text/css">.hair_fill{fill:#00FFFF;} .hair_outline{fill:#5DABB9;} .hair_shadow{fill:#3B747E;} .hair_brow{fill:#6AC2D2;} </style><style type="text/css">.eye_iris{fill:#71A6D2;} </style><pattern id="ear_i" width="48" height="48" x="250" y="750" overflow="visible" patternUnits="userSpaceOnUse" viewBox="4.8 -52.8 48 48"><defs><path id="ear_a" d="M4.8-52.8h48v48h-48z"/></defs><clipPath id="ear_b"><use overflow="visible" xlink:href="#ear_a"/></clipPath><g class="skin_dark" clip-path="url(#ear_b)"><path d="M28.8-57.6c2.7 0 4.8 2.1 4.8 4.8S31.5-48 28.8-48 24-50.2 24-52.8c0-2.7 2.1-4.8 4.8-4.8zM52.8-57.6c2.7 0 4.8 2.1 4.8 4.8S55.5-48 52.8-48 48-50.2 48-52.8c0-2.7 2.1-4.8 4.8-4.8zM28.8-33.6c2.7 0 4.8 2.1 4.8 4.8S31.5-24 28.8-24 24-26.1 24-28.8s2.1-4.8 4.8-4.8zM52.8-33.6c2.7 0 4.8 2.1 4.8 4.8S55.5-24 52.8-24 48-26.1 48-28.8s2.1-4.8 4.8-4.8zM40.8-45.6c2.7 0 4.8 2.1 4.8 4.8S43.5-36 40.8-36 36-38.2 36-40.8c0-2.7 2.1-4.8 4.8-4.8zM16.8-45.6c2.7 0 4.8 2.1 4.8 4.8S19.5-36 16.8-36 12-38.2 12-40.8c0-2.7 2.1-4.8 4.8-4.8zM40.8-21.6c2.7 0 4.8 2.1 4.8 4.8S43.5-12 40.8-12 36-14.1 36-16.8s2.1-4.8 4.8-4.8zM16.8-21.6c2.7 0 4.8 2.1 4.8 4.8S19.5-12 16.8-12 12-14.1 12-16.8s2.1-4.8 4.8-4.8z"/></g><defs><path id="ear_c" d="M4.8-52.8h48v48h-48z"/></defs><clipPath id="ear_d"><use overflow="visible" xlink:href="#ear_c"/></clipPath><g class="skin_dark" clip-path="url(#ear_d)"><path d="M4.8-57.6c2.7 0 4.8 2.1 4.8 4.8S7.5-48 4.8-48 0-50.1 0-52.8s2.1-4.8 4.8-4.8zM4.8-33.6c2.7 0 4.8 2.1 4.8 4.8S7.5-24 4.8-24 0-26.1 0-28.8s2.1-4.8 4.8-4.8z"/></g><g><defs><path id="ear_e" d="M4.8-52.8h48v48h-48z"/></defs><clipPath id="ear_f"><use overflow="visible" xlink:href="#ear_e"/></clipPath><g class="skin_dark" clip-path="url(#ear_f)"><path d="M28.8-9.6c2.7 0 4.8 2.1 4.8 4.8S31.5 0 28.8 0 24-2.2 24-4.8c0-2.7 2.1-4.8 4.8-4.8zM52.8-9.6c2.7 0 4.8 2.1 4.8 4.8S55.5 0 52.8 0 48-2.2 48-4.8c0-2.7 2.1-4.8 4.8-4.8z"/></g></g><g><defs><path id="ear_g" d="M4.8-52.8h48v48h-48z"/></defs><clipPath id="ear_h"><use overflow="visible" xlink:href="#ear_g"/></clipPath><path class="skin_dark" d="M4.8-9.6c2.7 0 4.8 2.1 4.8 4.8S7.5 0 4.8 0 0-2.2 0-4.8c0-2.7 2.1-4.8 4.8-4.8z" clip-path="url(#ear_h)"/></g></pattern><path class="skin_fill" d="M367.8 526l-17.1 11.9c-6.4 4.4-15.2 1.9-18.2-5.2l-17-39.1c-6.5-17.7-17.5-106.1 17.4-86.1 24.8 14.1 34.9 118.5 34.9 118.5zm264.4 0l17.1 11.9c6.4 4.4 15.2 1.9 18.2-5.2l17-39.1c6.5-17.7 17.5-106.1-17.4-86.1-24.8 14.1-34.9 118.5-34.9 118.5z"/><pattern id="ear_j" patternTransform="matrix(.2595 0 0 -.2601 -47417.488 1017.571)" xlink:href="#ear_i"/><path fill="url(#ear_j)" d="M327.1 494.2c-12.5-29-13.6-57.5-8-63.5 3.2-3.4 10.2 1.1 13.6 11.6 1.2 6.9 6.1 51 2.4 49.4-2-.8-5.8-1.7-8 2.5zm345.8 0c12.5-29 13.6-57.5 8-63.5-3.2-3.4-10.2 1.1-13.6 11.6-1.2 6.9-6.1 51-2.4 49.4 2-.8 5.8-1.7 8 2.5z"/><path class="skin_outline" d="M319.1 414.3c0-.5 14.1-3.3 18.1 52.5 2.1 30.1 1.3 26.9-4.5 25.8-3.1-.5-5.3 2.3-4.6 5.1 1 4.5 10.8 15.5 8.5 15.7-.2 0 .5.1-5.4-6.5-11.5-13-3.2-18.3 3.5-16.9.4.3-.7-42.7-6.8-62.6-4.3-14.3-9-12-8.8-13.1zm360.6-.1c-17.1 2.7-18.5 76.2-17.3 77.9 1.4 2.6 3.8.2 6.3.5 11.4 1.5-8.5 20.5-5.2 20.8.1 0 8.3-9.9 8.4-10 3-4.1 4.4-8.1.8-11.8-3.5-3.8-7.4-.7-7.4-1.9.4-14.5 2.1-62.4 12.1-72.9 1.7-1.9 5.6-3.2 2.3-2.6z"/><path fill="#303030" d="M344.9 530.8c0 8.4-12.7 8.4-12.7 0s12.7-8.4 12.7 0zm316.6-6.3c-8.4 0-8.4 12.7 0 12.7s8.4-12.7 0-12.7z"/><path fill="#E2E2E2" d="M338.8 536.1c0-1.8.3-1.4-1.1-1.4 0 1.7.2 1.4-.5 1.4 0-1.8.5-1.4-1.8-1.4 0-1.2-.2-1 .9-1 0-6.8.3-5.8-.9-5.8-.1-1.3-.4-1 1.8-1 0-1.7-.2-1.4.5-1.4 0 1.8-.3 1.4 1.1 1.4 0-1.7-.2-1.4.5-1.4 0 1.7-.2 1.4.6 1.4 1.9 0 2.6 2.5 1 3.5-.3.2-.3.1 0 .3 2 1 1.3 4-1 4-.8 0-.6-.3-.6 1.4h-.5zm-1.1-2.5c1.2 0 2.7.2 2.7-1.2 0-1.5-1.6-1.2-2.7-1.2v2.4zm0-3.4c2.5 0 2.5-.4 2.5-1.1 0-1.2-1.3-1.1-2.5-1.1v2.2zm324.1 5.9c0-1.8.3-1.4-1.1-1.4 0 1.7.2 1.4-.5 1.4 0-1.8.5-1.4-1.8-1.4 0-1.2-.2-1 .9-1 0-6.8.3-5.8-.9-5.8-.1-1.3-.4-1 1.8-1 0-1.7-.2-1.4.5-1.4 0 1.8-.3 1.4 1.1 1.4 0-1.7-.2-1.4.5-1.4 0 1.7-.2 1.4.6 1.4 1.9 0 2.6 2.5 1 3.5-.3.2-.3.1 0 .3 2 1 1.3 4-1 4-.8 0-.6-.3-.6 1.4h-.5zm-1.1-2.5c1.2 0 2.7.2 2.7-1.2 0-1.5-1.6-1.2-2.7-1.2v2.4zm0-3.4c2.5 0 2.5-.4 2.5-1.1 0-1.2-1.3-1.1-2.5-1.1v2.2z"/><pattern id="face_i" width="48" height="48" x="250" y="750" overflow="visible" patternUnits="userSpaceOnUse" viewBox="4.8 -52.8 48 48"><defs><path id="face_a" d="M4.8-52.8h48v48h-48z"/></defs><clipPath id="face_b"><use overflow="visible" xlink:href="#face_a"/></clipPath><g class="skin_dark" clip-path="url(#face_b)"><path d="M28.8-57.6c2.7 0 4.8 2.1 4.8 4.8S31.5-48 28.8-48 24-50.2 24-52.8c0-2.7 2.1-4.8 4.8-4.8zM52.8-57.6c2.7 0 4.8 2.1 4.8 4.8S55.5-48 52.8-48 48-50.2 48-52.8c0-2.7 2.1-4.8 4.8-4.8zM28.8-33.6c2.7 0 4.8 2.1 4.8 4.8S31.5-24 28.8-24 24-26.1 24-28.8s2.1-4.8 4.8-4.8zM52.8-33.6c2.7 0 4.8 2.1 4.8 4.8S55.5-24 52.8-24 48-26.1 48-28.8s2.1-4.8 4.8-4.8zM40.8-45.6c2.7 0 4.8 2.1 4.8 4.8S43.5-36 40.8-36 36-38.2 36-40.8c0-2.7 2.1-4.8 4.8-4.8zM16.8-45.6c2.7 0 4.8 2.1 4.8 4.8S19.5-36 16.8-36 12-38.2 12-40.8c0-2.7 2.1-4.8 4.8-4.8zM40.8-21.6c2.7 0 4.8 2.1 4.8 4.8S43.5-12 40.8-12 36-14.1 36-16.8s2.1-4.8 4.8-4.8zM16.8-21.6c2.7 0 4.8 2.1 4.8 4.8S19.5-12 16.8-12 12-14.1 12-16.8s2.1-4.8 4.8-4.8z"/></g><defs><path id="face_c" d="M4.8-52.8h48v48h-48z"/></defs><clipPath id="face_d"><use overflow="visible" xlink:href="#face_c"/></clipPath><g class="skin_dark" clip-path="url(#face_d)"><path d="M4.8-57.6c2.7 0 4.8 2.1 4.8 4.8S7.5-48 4.8-48 0-50.1 0-52.8s2.1-4.8 4.8-4.8zM4.8-33.6c2.7 0 4.8 2.1 4.8 4.8S7.5-24 4.8-24 0-26.1 0-28.8s2.1-4.8 4.8-4.8z"/></g><g><defs><path id="face_e" d="M4.8-52.8h48v48h-48z"/></defs><clipPath id="face_f"><use overflow="visible" xlink:href="#face_e"/></clipPath><g class="skin_dark" clip-path="url(#face_f)"><path d="M28.8-9.6c2.7 0 4.8 2.1 4.8 4.8S31.5 0 28.8 0 24-2.2 24-4.8c0-2.7 2.1-4.8 4.8-4.8zM52.8-9.6c2.7 0 4.8 2.1 4.8 4.8S55.5 0 52.8 0 48-2.2 48-4.8c0-2.7 2.1-4.8 4.8-4.8z"/></g></g><g><defs><path id="face_g" d="M4.8-52.8h48v48h-48z"/></defs><clipPath id="face_h"><use overflow="visible" xlink:href="#face_g"/></clipPath><path class="skin_dark" d="M4.8-9.6c2.7 0 4.8 2.1 4.8 4.8S7.5 0 4.8 0 0-2.2 0-4.8c0-2.7 2.1-4.8 4.8-4.8z" clip-path="url(#face_h)"/></g></pattern><path class="skin_fill" d="M500 218.3c-174 0-193.3 250.9-122 386.6v46.8c0 61.4 54.7 111 122 111 67.5 0 122-49.8 122-111V605c15.4-29.3 27.5-64.7 33-105.9 29.6-219-78.6-280.8-155-280.8z"/><path class="skin_outline" d="M353.5 541.6c-.7.2-7.8-21.9-11.8-59.3-3.8-35.1-2.6-87.5-.6-42.7 3 70 13.7 101.6 12.4 102zm294.7-4.5c8.4-27.3 12.6-69.6 12.6-97.5.1-47.8-1.9 13.4-5.1 42.4-4.4 41.3-12.5 71.6-7.5 55.1z"/><pattern id="face_j" patternTransform="matrix(.252 0 0 -.252 -47749.426 1318.206)" xlink:href="#face_i"/><path fill="url(#face_j)" d="M622 605v46.8c0 61.2-54.5 111-122 111-67.3 0-122-49.6-122-111V605c35.6 67.9 89.2 103.4 122 103.4s86.4-35.6 122-103.4zm-230.2-17.7c-1-18.5.9-32.1 3.2-41.1 1.8-7-1.3-14.2-7.5-17.8-18.8-11.2-16.4-30.6-25.4-30.6-3.9 0-6.5 3.4-6 6.9 5 32.4 14.2 60.8 25.8 85.2 2.4 5.2 10.2 3.2 9.9-2.6z"/><pattern id="nose_l" width="28.8" height="28.8" x="250" y="750" overflow="visible" patternUnits="userSpaceOnUse" viewBox="1.4 -30.2 28.8 28.8"><g fill="#FFF"><path d="M30.2 0c.8 0 1.4-.6 1.4-1.4s-.6-1.4-1.4-1.4-1.4.6-1.4 1.4c0 .8.6 1.4 1.4 1.4zM15.8 0c.8 0 1.4-.6 1.4-1.4s-.6-1.4-1.4-1.4c-.8 0-1.4.6-1.4 1.4 0 .8.6 1.4 1.4 1.4zM30.2-14.4c.8 0 1.4-.6 1.4-1.4s-.6-1.4-1.4-1.4-1.4.6-1.4 1.4c0 .8.6 1.4 1.4 1.4zM15.8-14.4c.8 0 1.4-.6 1.4-1.4s-.6-1.4-1.4-1.4c-.8 0-1.4.6-1.4 1.4 0 .8.6 1.4 1.4 1.4zM8.6-7.2c.8 0 1.4-.6 1.4-1.4S9.4-10 8.6-10c-.8 0-1.4.6-1.4 1.4 0 .8.6 1.4 1.4 1.4zM23-7.2c.8 0 1.4-.6 1.4-1.4S23.8-10 23-10s-1.4.6-1.4 1.4.6 1.4 1.4 1.4zM8.6-21.6c.8 0 1.4-.6 1.4-1.4s-.6-1.4-1.4-1.4c-.8 0-1.4.6-1.4 1.4 0 .8.6 1.4 1.4 1.4zM23-21.6c.8 0 1.4-.6 1.4-1.4s-.6-1.4-1.4-1.4-1.4.6-1.4 1.4c0 .8.6 1.4 1.4 1.4z"/></g><g fill="#FFF"><path d="M1.4 0c.8 0 1.4-.6 1.4-1.4s-.6-1.4-1.4-1.4C.6-2.9 0-2.2 0-1.4 0-.6.6 0 1.4 0zM1.4-14.4c.8 0 1.4-.6 1.4-1.4s-.6-1.4-1.4-1.4-1.4.6-1.4 1.4.6 1.4 1.4 1.4z"/></g><g fill="#FFF"><path d="M30.2-28.8c.8 0 1.4-.6 1.4-1.4s-.6-1.4-1.4-1.4-1.4.6-1.4 1.4c0 .8.6 1.4 1.4 1.4zM15.8-28.8c.8 0 1.4-.6 1.4-1.4s-.6-1.4-1.4-1.4-1.4.6-1.4 1.4c0 .8.6 1.4 1.4 1.4z"/></g><path fill="#FFF" d="M1.4-28.8c.8 0 1.4-.6 1.4-1.4s-.6-1.4-1.4-1.4C.6-31.7 0-31 0-30.2c0 .8.6 1.4 1.4 1.4z"/></pattern><pattern id="nose_i" width="48" height="48" x="250" y="750" overflow="visible" patternUnits="userSpaceOnUse" viewBox="4.8 -52.8 48 48"><path fill="none" d="M4.8-52.8h48v48h-48z"/><defs><path id="nose_a" d="M4.8-52.8h48v48h-48z"/></defs><clipPath id="nose_b"><use overflow="visible" xlink:href="#nose_a"/></clipPath><g class="skin_dark" clip-path="url(#nose_b)"><path d="M28.8-57.6c2.7 0 4.8 2.1 4.8 4.8S31.5-48 28.8-48 24-50.2 24-52.8c0-2.7 2.1-4.8 4.8-4.8zM52.8-57.6c2.7 0 4.8 2.1 4.8 4.8S55.5-48 52.8-48 48-50.2 48-52.8c0-2.7 2.1-4.8 4.8-4.8zM28.8-33.6c2.7 0 4.8 2.1 4.8 4.8S31.5-24 28.8-24 24-26.1 24-28.8s2.1-4.8 4.8-4.8zM52.8-33.6c2.7 0 4.8 2.1 4.8 4.8S55.5-24 52.8-24 48-26.1 48-28.8s2.1-4.8 4.8-4.8zM40.8-45.6c2.7 0 4.8 2.1 4.8 4.8S43.5-36 40.8-36 36-38.2 36-40.8c0-2.7 2.1-4.8 4.8-4.8zM16.8-45.6c2.7 0 4.8 2.1 4.8 4.8S19.5-36 16.8-36 12-38.2 12-40.8c0-2.7 2.1-4.8 4.8-4.8zM40.8-21.6c2.7 0 4.8 2.1 4.8 4.8S43.5-12 40.8-12 36-14.1 36-16.8s2.1-4.8 4.8-4.8zM16.8-21.6c2.7 0 4.8 2.1 4.8 4.8S19.5-12 16.8-12 12-14.1 12-16.8s2.1-4.8 4.8-4.8z"/></g><defs><path id="nose_c" d="M4.8-52.8h48v48h-48z"/></defs><clipPath id="nose_d"><use overflow="visible" xlink:href="#nose_c"/></clipPath><g class="skin_dark" clip-path="url(#nose_d)"><path d="M4.8-57.6c2.7 0 4.8 2.1 4.8 4.8S7.5-48 4.8-48 0-50.1 0-52.8s2.1-4.8 4.8-4.8zM4.8-33.6c2.7 0 4.8 2.1 4.8 4.8S7.5-24 4.8-24 0-26.1 0-28.8s2.1-4.8 4.8-4.8z"/></g><g><defs><path id="nose_e" d="M4.8-52.8h48v48h-48z"/></defs><clipPath id="nose_f"><use overflow="visible" xlink:href="#nose_e"/></clipPath><g class="skin_dark" clip-path="url(#nose_f)"><path d="M28.8-9.6c2.7 0 4.8 2.1 4.8 4.8S31.5 0 28.8 0 24-2.2 24-4.8c0-2.7 2.1-4.8 4.8-4.8zM52.8-9.6c2.7 0 4.8 2.1 4.8 4.8S55.5 0 52.8 0 48-2.2 48-4.8c0-2.7 2.1-4.8 4.8-4.8z"/></g></g><g><defs><path id="nose_g" d="M4.8-52.8h48v48h-48z"/></defs><clipPath id="nose_h"><use overflow="visible" xlink:href="#nose_g"/></clipPath><path class="skin_dark" d="M4.8-9.6c2.7 0 4.8 2.1 4.8 4.8S7.5 0 4.8 0 0-2.2 0-4.8c0-2.7 2.1-4.8 4.8-4.8z" clip-path="url(#nose_h)"/></g></pattern><pattern id="nose_j" patternTransform="translate(28933.117 -2612.896) scale(.2222)" xlink:href="#nose_i"/><path fill="url(#nose_j)" d="M517.5 552.3s-9.4 10.2-18.5 10.2-18.5-10.2-18.5-10.2L470 560l11.4 6c4.7 3.1 10.2 5.8 17.6 5.8s12.9-2.7 17.6-5.8l11.4-6-10.5-7.7z"/><path class="skin_outline" d="M487.6 559.1l-20.1 1.3 13.1-8.1zM510.5 559.1l20 1.3-13-8.1z"/><path fill="#B7B7D0" d="M498.8 573.3c-9.1 0-17.5-8.4-17.5-17.5 7.9 0 3.9 13 17.5 13 13.3 0 10.4-13 16.4-13 3.8 0-2.6 17.5-16.4 17.5z"/><path fill="#A5A5B7" d="M498.8 572.3c-8.1 0-15.8-7.3-16.4-15.4 1.3 0 2.5.9 2.8 2.2 3.4 14.3 23.8 14.2 27.2 0 .3-1.3 1.5-2.2 2.8-2.2-.6 8.1-8.3 15.4-16.4 15.4z"/><pattern id="nose_k" patternTransform="matrix(.26 0 0 -.26 -47504.09 1031.854)" xlink:href="#nose_i"/><path fill="url(#nose_k)" d="M481.4 520.3v-72.8l-12.8-12.7v105.6z"/><pattern id="nose_m" patternTransform="rotate(180 27363.271 3312.582) scale(.416)" xlink:href="#nose_l"/><path fill="url(#nose_m)" d="M516.6 520.3v-72.8l12.8-12.7v105.6z"/><path class="skin_outline" d="M474.7 532.5c-6.4 10.6-3.8 7.9-11.2 12.3-7.8 4.6-3.7 13.7 2.9 13.3 3.3-.2 9.5-5.4 12-6.5 5.5-2.6 4.3 7.6 20.5 9.1 16.2-1.5 15-11.7 20.5-9.1 3 1.3 8.5 6.3 12 6.5 6.6.4 10.8-8.6 2.9-13.3-7.4-4.4-4.8-1.8-11.2-12.3-9.4-15.9-8.8-16.3 1.6-1 6.5 9.6 4 7.3 10.9 11.1 10.7 5.9 5.4 19.2-4.4 18.8-4.8-.2-9.4-4.9-13.3-6.6-.5-.2-7.5 10.6-20.5 9.4-13.3-1.1-16.5-10.1-18-9.2-8.6 5.3-9.8 6.3-13 6.4-9.8.5-14.1-12.3-6-17.8 8.9-5.6 4.8-.5 12.5-12 10.7-15.4 11.3-15 1.8.9z"/><pattern id="nose_n" patternTransform="matrix(.416 0 0 .416 -71095.094 -23053.244)" xlink:href="#nose_l"/><path fill="url(#nose_n)" d="M514 545.5c-7.6-11.7-22.4-11.7-30 0h30z"/><pattern id="mouth_i" width="28.8" height="28.8" x="250" y="750" overflow="visible" patternUnits="userSpaceOnUse" viewBox="1.4 -30.2 28.8 28.8"><defs><path id="mouth_a" d="M1.4-30.2h28.8v28.8H1.4z"/></defs><clipPath id="mouth_b"><use overflow="visible" xlink:href="#mouth_a"/></clipPath><g class="skin_halftone" clip-path="url(#mouth_b)"><path d="M30.2 0c1.9 0 1.9-2.8 0-2.8S28.3 0 30.2 0zM15.8 0c1.9 0 1.9-2.8 0-2.8S13.9 0 15.8 0zM30.2-14.4c1.9 0 1.9-2.8 0-2.8s-1.9 2.8 0 2.8zM15.8-14.4c1.9 0 1.9-2.8 0-2.8s-1.9 2.8 0 2.8zM8.6-7.2c1.9 0 1.9-2.8 0-2.8s-1.9 2.8 0 2.8zM23-7.2c1.9 0 1.9-2.8 0-2.8s-1.9 2.8 0 2.8zM8.6-21.6c1.9 0 1.9-2.8 0-2.8s-1.9 2.8 0 2.8zM23-21.6c1.9 0 1.9-2.8 0-2.8s-1.9 2.8 0 2.8z"/></g><defs><path id="mouth_c" d="M1.4-30.2h28.8v28.8H1.4z"/></defs><clipPath id="mouth_d"><use overflow="visible" xlink:href="#mouth_c"/></clipPath><g class="skin_halftone" clip-path="url(#mouth_d)"><path d="M1.4 0c1.9 0 1.9-2.8 0-2.8C-.4-3-.6 0 1.4 0zM1.4-14.4c1.9 0 1.9-2.8 0-2.8s-1.9 2.8 0 2.8z"/></g><g><defs><path id="mouth_e" d="M1.4-30.2h28.8v28.8H1.4z"/></defs><clipPath id="mouth_f"><use overflow="visible" xlink:href="#mouth_e"/></clipPath><g class="skin_halftone" clip-path="url(#mouth_f)"><path d="M30.2-28.8c1.9 0 1.9-2.8 0-2.8s-1.9 2.8 0 2.8zM15.8-28.8c1.9 0 1.9-2.8 0-2.8s-1.9 2.8 0 2.8z"/></g></g><g><defs><path id="mouth_g" d="M1.4-30.2h28.8v28.8H1.4z"/></defs><clipPath id="mouth_h"><use overflow="visible" xlink:href="#mouth_g"/></clipPath><path class="skin_halftone" d="M1.4-28.8c1.9 0 1.9-2.8 0-2.8-1.8-.2-2 2.8 0 2.8z" clip-path="url(#mouth_h)"/></g></pattern><path fill="#241F20" d="M500 596.5c-28.4 0-63.1-5.5-63.1-1.9 0 10.3 34.7 38.1 63.1 38.1s63.1-27.8 63.1-38.1c.1-3.6-34.7 1.9-63.1 1.9z"/><path fill="#F7F3E8" d="M539.9 599c0-4.2 1.6-3.8-7.9-.1.1 4.9.1-4-14.8 2.1v-2.1c-20.7 6.7-12.8 7-34.5 0v2.1c-15.5-6.3-15 3.4-14.8-2.1-9.8-3.8-7.9-4-7.9.1-10.4 0-8.4-1.2-7.6 4.1.4 2.6 2.1 5.3 4.6 5.5.3 0-1.3.8-.1 4.6l-.9 5.6c14.5 2.2-1.8-.6 14.8 4.4 0-1-.1 0 .2.7 1.1 3.1 3.1 2.5 11.7 2.2 0 1.6-2.6 1.4 17.2-.7 19.9 2 17.2 2.2 17.2.7 8.4.4 10.7.9 11.7-2.2.2-.7.2-1.7.2-.7 15.8-4.8.8-2.3 14.8-4.4l-.9-5.6c1.4-4.4-.6-4.6-.1-4.6 2.5-.2 4.2-2.9 4.6-5.5.9-5.4 2.7-4.1-7.5-4.1zM500 615.5c-.2 0-.1 0 0 0s.1 0 0 0z"/><path fill="#E4EBDF" d="M500 612.8c.3 0 0 3.9-3.8 3.8-10.6.2-11.7.6-13.2-1.5-1.5-2 2-.6-10.5-.6-6.6 0-3.3-5.6-7-2.7-3.1 2.5-4.9-.2-5.3-3.6 0 .6-1.4 1.4-1.4 1.3 0-.1 1.5-1.3 1.5-1.9 0-.1 0 .1.3.3 1.8 9.7 6.3-1 7.7 3 .8 2.1 2.2 2.7 4.3 2.7 8.8 0 8.2.1 8.9-.3 2.3-1.4 1.5 2.7 5 2.6 10.6.1 11.5.6 12.9-1.3.6-1 .5-1.8.6-1.8z"/><path fill="#EB8874" d="M525.6 594.9c-30.8 7.4-19 7.8-51.3 0l-23.4-.4c2.9 16.4-1.6-.5 8.4 6.3.3.2.8.1 1-.3 3.1-6.3 6.4 3.6 7.7 1.3 2.5-4.8 11-2.1 14.2 1.6 1.5 1.7 6.7-5 17.7 3.6 0 .1-.1.1 0 0 .1.1 0 .1 0 0 10.9-8.6 16.2-1.9 17.7-3.6 3.2-3.7 11.7-6.5 14.2-1.6 1.3 2.4 4.6-7.6 7.7-1.3.2.4.6.5 1 .3 10-6.9 5.6 10 8.4-6.3l-23.3.4zM543.9 618.8l-.9-5.6c-.3 2.7.2 7.2-5.2 3.2-3.6 9.2-7.9 1.2-9.2 3.9-2.4 4.9-8.2 6.3-11 4.4-.3-.2-.7-.2-1 0-5.2 3.3-15-.2-17.4.2-16.9 2.8-15.3-1.3-16.8-.2-2.7 1.9-8.6.5-11-4.4-1.4-2.8-5.5 5.3-9.2-3.9-5.4 4-4.9-.5-5.2-3.2l-.9 5.6 18.2 11h51.3l18.3-11z"/><path fill="#E4EBDF" d="M502.3 616c.7.2 1.1.1 3 .1 8.2-.1 10 .4 11.1-1.9.5-1.1 1.3-1.2 1.9-.9.8.5.4.3 7.3.3 6.4 0 5.5-2.3 6.3-3.1.4-.6 1.3-.7 1.8-.1 4.2 3.5 3.8 1.8 5.9-2.7-.1.4 1 1.5 1.2 1.6 1 .9-1.2-.3-1.1-1-.2 1.4-.7 2.9-1.5 3.9-1.6 1.8-3.5-.1-4.9-1.2-1.9-1.6 1.2 3.5-7.6 3.5-7 0-6.7.1-7.7-.5-.4-.2-.6.2-.7.5-1.5 3-4.3 2.2-11.9 2.1-1.5 0-5.3.3-5.5-3.3-.1-1.8-.1 1.9 2.4 2.7z"/><path class="skin_dark" d="M513 589.1c-16.4 3.4-10.3 3.3-26.3-.1-11.6-2.4-34.7 3.8-56.7 1.6 0 0 13.3 6.8 19.8 7.2 48.7 3.2 34.7 5.3 50.2 5.3 15.4 0 1.9-2.1 50.2-5.3 6.5-.4 12.8-2.6 18.1-6.1-21.7 2.2-42.8-5.2-55.3-2.6z"/><pattern id="mouth_j" patternTransform="matrix(.448 0 0 .448 -29141.309 3006.561)" xlink:href="#mouth_i"/><path fill="url(#mouth_j)" d="M513 589.1c-16.4 3.4-10.3 3.3-26.3-.1-11.6-2.4-34.7 3.8-56.7 1.6 0 0 13.3 6.8 19.8 7.2 48.7 3.2 34.7 5.3 50.2 5.3 15.4 0 1.9-2.1 50.2-5.3 6.5-.4 12.8-2.6 18.1-6.1-21.7 2.2-42.8-5.2-55.3-2.6z"/><path class="skin_dark" d="M556.5 596.9c-8.8 10.7-23.1 27-56.5 27s-47.7-16.3-56.5-27c0 0-8.4-2.1-11.8-5.2l22.6 33.6c17.7 27.5 73.7 27.5 91.5 0l22.6-33.6c-3.4 3.1-11.9 5.2-11.9 5.2z"/><g><path class="skin_outline" d="M570 590.6c.1.2-2.8 2.4-4.6 3.4-8.6 5-13.8 4.6-37.6 6.6-14.9 1.4-15.7 3.7-27.8 3.8-11.5 0-13.6-2.4-27.8-3.8-23.4-2-29-1.6-37.6-6.6-1.4-.8-4.7-3.2-4.6-3.4s2.6 1.4 5 2.5c9.8 4.6 13.9 3.4 37.4 5.1 15.7 1.3 15.4 3.5 27.6 3.6 11.6 0 12.9-2.3 27.6-3.6 23.4-1.8 27.5-.5 37.4-5.1 2.4-1.1 4.9-2.7 5-2.5z"/></g><g><path fill="#AEAEAF" d="M500 610.5c-17.9 0-45.2-3.1-45.8-6.5 15.3 4 30.5 5.1 45.8 5.1v1.4z"/><path fill="#A44EC4" d="M493.8 613.9c-4.4-.1-6.6.6-6.8-3.4-.1-1.8-.4-5.2 1.8-5.2 4.5 0 6.6-.9 6.8 3.3.1 1.9.4 5.3-1.8 5.3zm-4.8-5.8c-.4 0-.2.9-.2 2.5 0 .7 0 .6 5 .6.4 0 .2-1 .2-2.6-.1-.7.1-.4-5-.5z"/><path fill="#EAEAEA" d="M488.7 609.6c-1 0-1.1-4.3-.2-4.3 1.3 0 1.1 4.3.2 4.3z"/><path fill="#EAEAEA" d="M488.9 613.8c-1.2 0-1-4.3-.2-4.2 1 0 1.1 4.2.2 4.2zM494 609.7c-1 0-1-4.4-.1-4.4 1.1 0 .9 4.4.1 4.4zM494.1 614c-1.2 0-.9-4.3-.1-4.3.9 0 1 4.3.1 4.3z"/><path fill="#EAEAEA" d="M493.9 609c-6.2 0-5.2-.5-5.2 1.3 6.2.2 5.3.7 5.2-1.3z"/><g><path fill="#A44EC4" d="M477.5 612.6c-4.2-.3-5.7.3-6-3.5-.1-1.6-.6-4.9 1.2-4.8 4 .2 6.1-.6 6.3 3.4.1 1.6.6 5-1.5 4.9zm-4.6-5.7c-.3 0-.2.6 0 2.3 0 .6-.2.5 4.3.8.4 0 .2-1 .1-2.4-.2-.7-.1-.4-4.4-.7z"/><path fill="#EAEAEA" d="M472.8 608.3c-.8-.1-1.1-4-.3-4 .9.1.9 4.1.3 4z"/><path fill="#EAEAEA" d="M473.1 612.2c-.9-.1-1-4-.3-3.9.7.1 1.1 4 .3 3.9zM477.2 608.6c-.9 0-1.2-4.1-.3-4.1 1.1 0 1.1 4.1.3 4.1z"/><path fill="#EAEAEA" d="M477.5 612.6c-1-.1-1-4.1-.3-4 .9 0 1.3 4.1.3 4z"/><path fill="#EAEAEA" d="M477.2 608c-5.2-.3-4.5-1-4.4 1 5.1.3 4.6 1.2 4.4-1z"/></g><g><path fill="#A44EC4" d="M465.3 610.7c-3.1-.7-4-.5-4.4-3.7-.2-1.3-.8-4.4.5-4.2 3.3.5 4.4.1 4.7 3.5 0 1.3.5 4.7-.8 4.4zm-3.7-5.6c-.3 0 0 1.2.1 2 .1.5 0 .5 2.4 1 .3.1 0-1.3-.1-2.1.1-.6.1-.4-2.4-.9z"/><path fill="#EAEAEA" d="M461.6 606.3c-.5-.1-1.1-3.7-.5-3.6.7.1 1 3.7.5 3.6z"/><path fill="#EAEAEA" d="M462.1 609.9c-.6-.2-1-3.7-.5-3.6.6.2 1.1 3.8.5 3.6zM464.4 606.9c-.6-.1-1-3.9-.4-3.8.7.1.8 3.9.4 3.8zM464.8 610.7c-.7-.2-.9-3.8-.4-3.7.5 0 .9 3.8.4 3.7z"/><path fill="#EAEAEA" d="M464.3 606.3c-3.2-.5-2.7-.8-2.6.6 3.2.7 2.7.8 2.6-.6z"/></g><g><path fill="#A44EC4" d="M456 607.9c-2.2-.7-3.1-.5-3.6-3.2-.2-.9-.8-3.6.2-3.5 2.3.3 3.2 0 3.7 3 .1.8.8 4-.3 3.7zm-3-4.7c-.2 0 .1 1 .2 1.6.1.5.1.3 1.6.7.2.1-.1-1-.2-1.8-.1-.4-.3-.2-1.6-.5z"/><path fill="#EAEAEA" d="M453 604.2c-.5-.1-1.1-3.1-.6-3 .6.1 1.1 3.1.6 3z"/><path fill="#EAEAEA" d="M453.6 607.2c-.5-.1-1-3.1-.6-3 .5.1 1.1 3.1.6 3zM454.8 604.6c-.5-.1-1.1-3.3-.6-3.2.6.1 1 3.3.6 3.2z"/><path fill="#EAEAEA" d="M455.4 607.8c-.5-.2-1-3.3-.6-3.2.5.1 1.1 3.3.6 3.2z"/><path fill="#EAEAEA" d="M454.7 604.2c-2.2-.7-1.7-.3-1.6.5 2.1.4 1.9.7 1.6-.5z"/></g><g><path fill="#AEAEAF" d="M500 610.5c17.9 0 45.2-3.1 45.8-6.5-15.3 4-30.5 5.1-45.8 5.1v1.4z"/><path fill="#A44EC4" d="M504.3 610.7c.1-1.9-.1-5.4 2.1-5.4 4.4 0 6.8-.9 6.6 3.2-.1 1.8 0 5.2-2.2 5.3-4.4.2-6.6.9-6.5-3.1zm2-2.6c-.4 0-.3 1-.4 2.6 0 .6-.2.6 4.9.4.4 0 .3-1 .4-2.5.1-.7.2-.5-4.9-.5z"/><path fill="#EAEAEA" d="M511.3 609.6c1 0 1.1-4.3.2-4.3-1.3 0-1.1 4.3-.2 4.3z"/><path fill="#EAEAEA" d="M511.1 613.8c1.2 0 1-4.3.2-4.2-1 0-1.1 4.2-.2 4.2zM506 609.7c1 0 1-4.4.1-4.4-1.1 0-.9 4.4-.1 4.4zM505.9 614c1.2 0 .9-4.3.1-4.3-.9 0-1 4.3-.1 4.3z"/><path fill="#EAEAEA" d="M506.1 609c6.2 0 5.2-.5 5.2 1.3-6.2.2-5.3.7-5.2-1.3z"/><g><path fill="#A44EC4" d="M520.9 609.6c.1-1.7.1-5 2.2-5.1 4.3-.1 5.9-1.1 5.6 2.7-.1 1.6-.2 4.8-1.9 5-4.1.4-6.2 1.3-5.9-2.6zm2.2-2.5c-.4 0-.3 1-.4 2.4 0 .7-.1.5 4.2.2.3 0 .3-.5.4-2.4.1-.6.2-.4-4.2-.2z"/><path fill="#EAEAEA" d="M527.2 608.3c.8-.1 1.1-4 .3-4-.9.1-.9 4.1-.3 4z"/><path fill="#EAEAEA" d="M526.9 612.2c.9-.1 1-4 .3-3.9-.7.1-1.1 4-.3 3.9zM522.8 608.6c.9 0 1.2-4.1.3-4.1-1.1 0-1.1 4.1-.3 4.1z"/><path fill="#EAEAEA" d="M522.5 612.6c1-.1 1-4.1.3-4-.9 0-1.3 4.1-.3 4z"/><path fill="#EAEAEA" d="M522.8 608c5.2-.3 4.5-1 4.4 1-5.1.3-4.6 1.2-4.4-1z"/></g><g><path fill="#A44EC4" d="M533.8 608.1c.1-1.3.3-4.6 1.7-4.8 3.1-.4 4.4-1.4 3.9 2.1-.2 1.2-.5 4.3-1.7 4.6-3.1.8-4.2 1.5-3.9-1.9zm2.3-2.6c-.2 0-.3.9-.4 2.2-.1.6 0 .5 2.4-.1.2-.1.3-.9.4-2.1 0-.6.1-.4-2.4 0z"/><path fill="#EAEAEA" d="M538.4 606.3c.5-.1 1.1-3.7.5-3.6-.7.1-1 3.7-.5 3.6z"/><path fill="#EAEAEA" d="M537.9 609.9c.6-.2 1-3.7.5-3.6-.6.2-1.1 3.8-.5 3.6zM535.6 606.9c.6-.1 1-3.9.4-3.8-.7.1-.8 3.9-.4 3.8zM535.2 610.7c.7-.2.9-3.8.4-3.7-.5 0-.9 3.8-.4 3.7z"/><path fill="#EAEAEA" d="M535.7 606.3c3.2-.5 2.7-.8 2.6.6-3.2.7-2.7.8-2.6-.6z"/></g><g><path fill="#A44EC4" d="M543.5 605.7c.2-1 .6-4 1.7-4.1 2.2-.4 3.2-.9 2.7 1.9-.2.8-.6 3.5-1.7 3.8-2.2.5-3.2 1.5-2.7-1.6zm2.1-2.2c-.2 0-.3.9-.5 1.8-.1.5 0 .3 1.5 0 .2 0 .2-.6.5-1.7.1-.5.1-.5-1.5-.1z"/><path fill="#EAEAEA" d="M547 604.2c.5-.1 1.1-3.1.6-3-.6.1-1.1 3.1-.6 3z"/><path fill="#EAEAEA" d="M546.4 607.2c.5-.1 1-3.1.6-3-.5.1-1.1 3.1-.6 3zM545.2 604.6c.5-.1 1.1-3.3.6-3.2-.6.1-1 3.3-.6 3.2z"/><path fill="#EAEAEA" d="M544.6 607.8c.5-.2 1-3.3.6-3.2-.5.1-1.1 3.3-.6 3.2z"/><path fill="#EAEAEA" d="M545.3 604.2c2.2-.7 1.7-.3 1.6.5-2.1.4-1.9.7-1.6-.5z"/></g></g></g><pattern id="feat_c" width="28.8" height="28.8" y="1000" overflow="visible" patternUnits="userSpaceOnUse" viewBox="1.4 -30.2 28.8 28.8"><defs><path id="feat_a" d="M1.4-30.2h28.8v28.8H1.4z"/></defs><clipPath id="feat_b"><use overflow="visible" xlink:href="#feat_a"/></clipPath><g class="hair_shadow" clip-path="url(#feat_b)"><path d="M30.2 0c1.9 0 1.9-2.8 0-2.8S28.3 0 30.2 0zM15.8 0c1.9 0 1.9-2.8 0-2.8S13.9 0 15.8 0zM30.2-14.4c1.9 0 1.9-2.8 0-2.8s-1.9 2.8 0 2.8zM15.8-14.4c1.9 0 1.9-2.8 0-2.8s-1.9 2.8 0 2.8zM8.6-7.2c1.9 0 1.9-2.8 0-2.8s-1.9 2.8 0 2.8zM23-7.2c1.9 0 1.9-2.8 0-2.8s-1.9 2.8 0 2.8zM8.6-21.6c1.9 0 1.9-2.8 0-2.8s-1.9 2.8 0 2.8zM23-21.6c1.9 0 1.9-2.8 0-2.8s-1.9 2.8 0 2.8z"/><g><path d="M1.4 0c1.9 0 1.9-2.8 0-2.8C-.4-3-.6 0 1.4 0zM1.4-14.4c1.9 0 1.9-2.8 0-2.8s-1.9 2.8 0 2.8z"/></g><g><path d="M30.2-28.8c1.9 0 1.9-2.8 0-2.8s-1.9 2.8 0 2.8zM15.8-28.8c1.9 0 1.9-2.8 0-2.8s-1.9 2.8 0 2.8z"/></g><path d="M1.4-28.8c1.9 0 1.9-2.8 0-2.8-1.8-.2-2 2.8 0 2.8z"/></g></pattern><path class="hair_fill" d="M698.3 681.9c-6-25.2.5-58.6-20.6-144.6-1.6-6.6-18.3-170.3-20.8-144.7 0 0 2.2 183.2-62.5 203.7-5.5-10.1-13.5-18-24.7-22.3-34.7-13.5-70.7 0-70.7 0s-36-13.5-70.7 0c-11.1 4.3-19.1 12.2-24.6 22.2-64.7-23-62.6-203.6-62.6-203.6-2.4-25.7-19.2 138.2-20.8 144.7-46.3 173.9 13.4 214.8-38.5 259.8.3.4 12.8-6.2 21-26 8.3-20.7 1.8-25.3 7.7 12.7-.2 55.2 27.1 99.9 27.9 99.5 1.4-.8-18.6-31.2-23.9-76.3-2.4-19.3 1.1 17.9 22.9 55 21.3 67.8 91.4 86.5 91.4 86.4 1.4-3.2-59.6-16.4-85.6-77.1 41 61.3 108.1 85.2 155.7 118.7 1.1-6.7 87.7-43.8 133.1-90.6 0 .1-1.3 5.9-1.5 6.8-30.8 29.6-61.7 41.5-61.3 42.3.1.1 3.7-1.2 10.6-4.4 67.4-32.8 45.6-54.1 49.1-5.1.1 1.4 2.5 16.8 1.8 5-.9-12.3-3-32.5 11.3-46 21.1-22.3 38.6-53.2 46.8-85.3 17.7-42.4 19.8-85.3 9.5-130.8zM306.6 715c-4.7-54.2 1.3-107.2 12.6-162.5-15.2 146.6-10.6 182-12.6 162.5zm218.2-43.6c-10.6 0-11.6-12.3-3.3-14.5 9.7-2.6 10.9-11.9 10.9-11.9-2.5 2-20.7 4.7-33.3 4.7s-30.8-2.8-33.3-4.7c0 0 1.2 9.3 10.9 11.9 8 2.2 7.5 14.5-3.3 14.5-39.7 0-44.9-25.5-44.6-57.5 0 0 28.2 8.1 70.3 3.3 42.1 4.8 70.3-3.3 70.3-3.3.3 32.3-4.8 57.5-44.6 57.5zm166.3 48.4c-1.8-69.5-7.3-83.3.9-54 3 10.5.5 42.5-.9 54zm2-56.7c-10.5-33.7-1.5 11.3-14.1-110.7 7.4 35.9 12.9 73.9 14.1 110.7zm-58.8 238.2c.4-1.7.3-1.5 1.7-6.1 16.6-18 40.3-57.3 44.7-65.5-16.2 44.1-47.1 74.9-46.4 71.6zm35.3-55c-13.6 22.2 23.2-25 21.6-119.6 1.8-8.5 3.1-32.7 3.5 24.4-1.3 52.2-11.4 72.6-25.1 95.2zm23-50.6c8.9-48.2.3-71.4 2-94.7 1.7-20.7.3-24.2 1.6-18.5 8 37.9 8.4 74.8-3.6 113.2z"/><pattern id="feat_d" patternTransform="matrix(.3974 0 0 -.3974 -106548.727 -55775.723)" xlink:href="#feat_c"/><path fill="url(#feat_d)" d="M427.9 614.2c0 6.1-.7 93.1-14.3 116.8 14-21 23.8-52.9 18.9-82.1-4.5-7.8-4.6-31.5-4.6-34.7z"/><pattern id="feat_e" patternTransform="matrix(.3974 0 0 -.3974 -106548.727 -55775.723)" xlink:href="#feat_c"/><path fill="url(#feat_e)" d="M570.2 615.5v-1.3 1.3z"/><pattern id="feat_f" patternTransform="matrix(.3974 0 0 -.3974 -106548.727 -55775.723)" xlink:href="#feat_c"/><path fill="url(#feat_f)" d="M565.6 648.9c-4.9 29.1 4.9 61.1 18.9 82.1-12.9-22.5-14.1-102.8-14.3-115.5 0 6-.4 26.3-4.6 33.4z"/><pattern id="feat_g" patternTransform="matrix(.3974 0 0 -.3974 -106548.727 -55775.723)" xlink:href="#feat_c"/><path fill="url(#feat_g)" d="M495.8 573c-10.3 17.8.4 34.3.4 34.3-1.4-37.3 7.6-31.7-.4-34.3z"/><g class="hair_outline"><path d="M427.2 656.6c-1-.1-5.2 59.2-12.9 71.2-.6 1-16.6-44.7-10.3-93.7 1.4-10.3 3-16.6 2.5-16.8-.4-.1-2.8 6-4.9 16.4-9 47.4 9.7 91.2 4.5 77.4-9.2-26-13.8-58.4-10.2-86 2.7-20.2 9.3-29.9 8.7-30.3-.7-.4-8.2 12.2-11.2 29.9-9.2 56.8 18.7 114.2 21.9 108.3 11.5-21.7 12.8-76.4 11.9-76.4zM339.4 487.8c0-1 .7-24.3-.3-24.3-3.1 0 6.8-12.5-19.3 146-27.8 170.4 15.4-46.5 19.6-121.7zM348.7 563.4c1.8-30.5-1.5 2.5-5.3 32.4C331.6 691 311 802 328.9 845.9c2.7 6.5 5.9 11.8 3.2 5.4-21.4-51.7 9.3-178.8 16.6-287.9z"/><path d="M418.6 940.4c-62.1-51.6-48-136.8-47.9-160.2 1-66.5-7.2-46.3 13.4-174.3 3.2-19.9-14.4 50.7-16.9 104.5-1.5 34.9 1.4 52.7-.6 88-2 37.2.1 71.9 19.6 105.8 17.2 30.1 42.8 44.8 32.4 36.2zM477.8 971.1c-9.2-25.6-6.4-53.2-5.8-83.7 1.6-82.3-15.5-105.4-5.1-163.5 4.8-28.2 13.8-41.1 12.9-41.6-1-.7-10.8 17.8-15.4 41.1-11.5 56.6 5.1 80.1 4.3 163.9-.3 29.8-2.6 59.8 8.1 84.1 3.7 8 4.1 8.3 1-.3zM360.5 626.9c-28 123.9-6.8 281.4-9.6 231.3-9-159 20.2-276.8 9.6-231.3zM425.6 885.9c-15.3-84-8-125.4-9.7-125.7-2.2-.4-8.6 62 7.8 126.1 3.9 14.8 4.9 15.7 1.9-.4zM456.5 580.4c-6.4 14.7-3.4 30.6-2.2 30.5.8-.1-.2-8.1 1.4-17.7 1.4-9.6 4.3-17 3.7-17.3-.4-.2-1.6 1.5-2.9 4.5zM442.4 578.5c1.4-2.8 2.5-4.4 2.2-4.8-1.2-1.2-11.8 9.4-11.2 28.1.6 17.6 2.7-11.2 9-23.3zM425.5 615.1c-12.7 14.3-12.6 61.6-8.8 60.7.6-.1-.5-39.4 9.9-60 .7-1.4 1.2-2.2 1-2.4-.1 0-.9.4-2.1 1.7zM485.5 575.2c-1.7-.8-7 11.8-4 26.7 3 14.7 2.4-10.1 3-17.2.8-6.8 1.6-9.2 1-9.5zM351.1 643.7c1 0 1.5-14.4 4.4-34.4 3.3-22.9 6.7-33.8 5.8-34.1-2.6-.9-8.3 26.6-9.3 33.6-2.6 17.8-2.1 34.9-.9 34.9zM327.3 643.7c-7.2-2.6-20.9 110.5-5.6 29.3 3.8-20.8 6.4-29 5.6-29.3zM452.5 686.4c-5.9 42.2-25.8 69.9-6.1 151 3.9 16 1.1-1.6-1.2-17.8-4.4-31.9-6-56.7 1.1-89.6 9.8-41.8 8.6-60.3 6.2-43.6z"/><path d="M405.8 902.3c8.3 22.7 17.9 33 14.2 26.4-20.2-33.2-33.1-111.7-26.8-180.1 1.8-19.3 4.4-31.7 3.8-31.9-2.7-.5-22.5 100.7 8.8 185.6zM411.9 624.4c1.2 0 1.3-9.7 6.3-23.9 2.8-7.4 4.4-9.9 3.8-10.3-1.1-.8-8.7 8-10.8 22.9-.7 6.4-.1 11.3.7 11.3zM449.1 938.6c-12.9-38.4-8.2-42.6-8.7-79.2-.3-11.6-1.1-12.7-2 0-2.1 31.6-3.8 42.3 2.7 64.2 4.2 13.3 19.6 50.6 8 15zM583.4 734c15.7-13.5 36.4-97.6 11.5-137.5-5.2-8 7.8 10.9 8.6 44.4.6 26-5.3 56.5-14 76.6 18.4-54.8 3.5-100.6 2.2-100.2-.8.2 3.5 13.2 4.4 35 1.4 38.7-11.2 77-12.2 75.5-9.8-23.3-14.1-96.4-12.9-62.6.6 20.4 2.9 50.9 12.4 68.8zM686.3 665.6c-4.5-51.2-20.1-110.7-26-189.3-1.9-34.2-3.4 5.8 2.1 52.1 1.3 10.8 28.2 183.2 23.9 137.2zM675.1 762.1c-2.7-38.4-38.5-317.3-22.8-166.1 9.7 95.5 31.5 203.7 15.9 249.4-2.1 6.1-5 12.5-1.4 6.1 11.8-21.4 10.1-65 8.3-89.4z"/><path d="M632.1 807.3c-3.7-69.3 5.7-89.8-11.4-175.3-3.6-17.7-6.7-29.9-7-29.8-.5.1 2.6 15.6 5.1 30.2 15.7 91.3 5.8 103 9.8 175.1 4.7 102.6-52.9 133.7-51.9 135.3.3.4 59.8-33 55.4-135.5zM518.3 682.3c-1.9 1.1 20.5 27.8 15.2 102.4-.2 4.3-2.8 21-5.2 44.2-5.2 54.4.9 88.3-2.1 115.6-3.6 25.3-10.5 39.2-6.4 30.3 19.4-42.9 1.7-67 15.5-175.5 9.6-82.6-16.6-117.2-17-117zM641.4 645.4c-12.9-68-1.3 2.1 3.4 48.1 9.6 109 .6 174.4 2.3 174.6 2.5.3 13.2-124.8-5.7-222.7zM582.3 760.3c-.5.1.2 7.8.2 20.3.7 66.6-19 147.9-8.1 105.8 16.5-64.1 10.1-126.5 7.9-126.1zM538.9 575.9c-.9.4 1.9 7.8 3.3 17.4 1.5 9.1.7 21.8 2.7 16.3 4.8-13.9-4.1-34.7-6-33.7zM557.6 577.3c-2-2.7-3.8-3.9-4-3.6-1.3 1.3 5.4 2.6 9 28.2 2.3 16.3 4.6-12-5-24.6zM574.1 622.1c8.4 24.3 6.4 53.6 7.3 53.7 2.1.5 5.5-32.3-5-54.7-1.7-3.8-5.2-8.4-5.9-7.6-.4.4 1.5 2.3 3.6 8.6zM512.7 575.2c-.6.3.2 2.7 1 9.5.7 7.1 0 31.8 3 17.2 3.2-15.7-2.7-27.3-4-26.7zM674.7 651.8c-11.7-33.8 7.9 50.5 8 50.5 1.6-.2-1-30.6-8-50.5zM548.7 716.3c3.3 14 6.6 26.6 7.7 45.3 2.7 40.6-8.7 81.6-6.5 82 .7.1 12.5-44.2 10-82.3-1.5-24.3-6.9-38-11.2-57.6-3.3-15.6-3.6-23.8-4.1-23.8-.7 0-.8 14.7 4.1 36.4z"/><path d="M601.2 716.7c-.9.2 18.7 94.7-11.2 184.7-7.3 22.1-16.6 34.4-11.2 27.6 15.9-18.8 39-97.4 28.7-180.7-1.8-14.1-5.5-31.7-6.3-31.6zM580 600.5c5.2 14.6 5.1 23.9 6.3 23.9 1.3 0 1.1-7.3.6-11.3-2.2-15.3-9.9-23.6-10.8-22.9-.5.4 1.1 2.9 3.9 10.3zM560.2 865.8c-3.2-48.4-2 32.2-2.4 37.1-2 22-19 63.4-11 46.9 18.8-38.1 15-59.5 13.4-84zM492.2 832.7c-11.2-84 3.2-115.2.9-116-2.5-.8-15.9 53.7-2.8 116.3 3 14.3 3.8 14.2 1.9-.3zM505.8 797.2c-2.5.9 5.6.1-2.4 67.6-3.6 26.2-13.7 79-6.4 117.8.9 4.9 1.8 7.5 2.1 7.4.2-.1-.2-2.7-.7-7.6-5.9-58.3 11-104.9 11-157-.1-16-2.5-28.7-3.6-28.2z"/></g><pattern id="eye_m" width="28.8" height="28.8" x="250" y="750" overflow="visible" patternUnits="userSpaceOnUse" viewBox="1.4 -30.2 28.8 28.8"><defs><path id="eye_a" d="M1.4-30.2h28.8v28.8H1.4z"/></defs><clipPath id="eye_b"><use overflow="visible" xlink:href="#eye_a"/></clipPath><g class="hair_shadow" clip-path="url(#eye_b)"><path d="M30.2 0c.8 0 1.4-.6 1.4-1.4s-.6-1.4-1.4-1.4-1.4.6-1.4 1.4c0 .8.6 1.4 1.4 1.4zM15.8 0c.8 0 1.4-.6 1.4-1.4s-.6-1.4-1.4-1.4c-.8 0-1.4.6-1.4 1.4 0 .8.6 1.4 1.4 1.4zM30.2-14.4c.8 0 1.4-.6 1.4-1.4s-.6-1.4-1.4-1.4-1.4.6-1.4 1.4c0 .8.6 1.4 1.4 1.4zM15.8-14.4c.8 0 1.4-.6 1.4-1.4s-.6-1.4-1.4-1.4c-.8 0-1.4.6-1.4 1.4 0 .8.6 1.4 1.4 1.4zM8.6-7.2c.8 0 1.4-.6 1.4-1.4S9.4-10 8.6-10c-.8 0-1.4.6-1.4 1.4 0 .8.6 1.4 1.4 1.4zM23-7.2c.8 0 1.4-.6 1.4-1.4S23.8-10 23-10s-1.4.6-1.4 1.4.6 1.4 1.4 1.4zM8.6-21.6c.8 0 1.4-.6 1.4-1.4s-.6-1.4-1.4-1.4c-.8 0-1.4.6-1.4 1.4 0 .8.6 1.4 1.4 1.4zM23-21.6c.8 0 1.4-.6 1.4-1.4s-.6-1.4-1.4-1.4-1.4.6-1.4 1.4c0 .8.6 1.4 1.4 1.4z"/><g><path d="M1.4 0c.8 0 1.4-.6 1.4-1.4s-.6-1.4-1.4-1.4C.6-2.9 0-2.2 0-1.4 0-.6.6 0 1.4 0zM1.4-14.4c.8 0 1.4-.6 1.4-1.4s-.6-1.4-1.4-1.4-1.4.6-1.4 1.4.6 1.4 1.4 1.4z"/></g><g><path d="M30.2-28.8c.8 0 1.4-.6 1.4-1.4s-.6-1.4-1.4-1.4-1.4.6-1.4 1.4c0 .8.6 1.4 1.4 1.4zM15.8-28.8c.8 0 1.4-.6 1.4-1.4s-.6-1.4-1.4-1.4-1.4.6-1.4 1.4c0 .8.6 1.4 1.4 1.4z"/></g><path d="M1.4-28.8c.8 0 1.4-.6 1.4-1.4s-.6-1.4-1.4-1.4C.6-31.7 0-31 0-30.2c0 .8.6 1.4 1.4 1.4z"/></g></pattern><pattern id="eye_k" width="48" height="48" x="250" y="750" overflow="visible" patternUnits="userSpaceOnUse" viewBox="4.8 -52.8 48 48"><defs><path id="eye_c" d="M4.8-52.8h48v48h-48z"/></defs><clipPath id="eye_d"><use overflow="visible" xlink:href="#eye_c"/></clipPath><g class="skin_dark" clip-path="url(#eye_d)"><path d="M28.8-57.6c2.7 0 4.8 2.1 4.8 4.8S31.5-48 28.8-48 24-50.2 24-52.8c0-2.7 2.1-4.8 4.8-4.8zM52.8-57.6c2.7 0 4.8 2.1 4.8 4.8S55.5-48 52.8-48 48-50.2 48-52.8c0-2.7 2.1-4.8 4.8-4.8zM28.8-33.6c2.7 0 4.8 2.1 4.8 4.8S31.5-24 28.8-24 24-26.1 24-28.8s2.1-4.8 4.8-4.8zM52.8-33.6c2.7 0 4.8 2.1 4.8 4.8S55.5-24 52.8-24 48-26.1 48-28.8s2.1-4.8 4.8-4.8zM40.8-45.6c2.7 0 4.8 2.1 4.8 4.8S43.5-36 40.8-36 36-38.2 36-40.8c0-2.7 2.1-4.8 4.8-4.8zM16.8-45.6c2.7 0 4.8 2.1 4.8 4.8S19.5-36 16.8-36 12-38.2 12-40.8c0-2.7 2.1-4.8 4.8-4.8zM40.8-21.6c2.7 0 4.8 2.1 4.8 4.8S43.5-12 40.8-12 36-14.1 36-16.8s2.1-4.8 4.8-4.8zM16.8-21.6c2.7 0 4.8 2.1 4.8 4.8S19.5-12 16.8-12 12-14.1 12-16.8s2.1-4.8 4.8-4.8z"/></g><defs><path id="eye_e" d="M4.8-52.8h48v48h-48z"/></defs><clipPath id="eye_f"><use overflow="visible" xlink:href="#eye_e"/></clipPath><g class="skin_dark" clip-path="url(#eye_f)"><path d="M4.8-57.6c2.7 0 4.8 2.1 4.8 4.8S7.5-48 4.8-48 0-50.1 0-52.8s2.1-4.8 4.8-4.8zM4.8-33.6c2.7 0 4.8 2.1 4.8 4.8S7.5-24 4.8-24 0-26.1 0-28.8s2.1-4.8 4.8-4.8z"/></g><g><defs><path id="eye_g" d="M4.8-52.8h48v48h-48z"/></defs><clipPath id="eye_h"><use overflow="visible" xlink:href="#eye_g"/></clipPath><g class="skin_dark" clip-path="url(#eye_h)"><path d="M28.8-9.6c2.7 0 4.8 2.1 4.8 4.8S31.5 0 28.8 0 24-2.2 24-4.8c0-2.7 2.1-4.8 4.8-4.8zM52.8-9.6c2.7 0 4.8 2.1 4.8 4.8S55.5 0 52.8 0 48-2.2 48-4.8c0-2.7 2.1-4.8 4.8-4.8z"/></g></g><g><defs><path id="eye_i" d="M4.8-52.8h48v48h-48z"/></defs><clipPath id="eye_j"><use overflow="visible" xlink:href="#eye_i"/></clipPath><path class="skin_dark" d="M4.8-9.6c2.7 0 4.8 2.1 4.8 4.8S7.5 0 4.8 0 0-2.2 0-4.8c0-2.7 2.1-4.8 4.8-4.8z" clip-path="url(#eye_j)"/></g></pattern><path class="hair_brow" d="M472.4 407.8c-3.3 5.7-7.5 15.9-19.1 13-44.8-11.3-56.7-10.5-89.1-3.5 0 0 10.7-28.8 39.9-28.8 16.4 0 55.5 19.3 55.5 19.3h12.8zm-1.7 9.5c-2.1 2.9-4.4 3.4-4.4 3.9.1.6 3.5.3 5.8-2.9 2-2.9 1.9-6.3 1.4-6.3-.5-.1-1 2.7-2.8 5.3z"/><pattern id="eye_l" patternTransform="matrix(.252 0 0 -.252 -70871.758 -7216.028)" xlink:href="#eye_k"/><path fill="url(#eye_l)" d="M364.2 417.3s5.1 25.5 25.8 29.2c8.9-5.8 21.3-16.3 31.5-16.3 20.6 0 30.5 12.6 30.5 12.5 4-4.6 1.8-21.7-4.1-23.2-40.2-9.7-51.5-9.2-83.7-2.2z"/><path fill="#FFF" d="M398.7 451c0 15.5 21.4 13.4 41.5 13.4 6.5 0 13.7-.9 13.7-7-11-24.2-55.2-16.1-55.2-6.4z"/><path class="eye_iris" d="M418 464c3 .5.8.4 22.4.4 5.2-5.2 6.4-12.1 4.1-17.8-9.1-6.5-17.8-8-25.2-7.2-7.9 5.9-8.9 17.8-1.3 24.6z"/><path d="M436.2 452.4c0 9.3-14 9.3-14 0s14-9.3 14 0z"/><path class="skin_outline" d="M451.9 442.9c-1.6 1.5-3.9-9.5-24-11.3-9.4-.8-17.5 1.5-23.9 5.6-9.2 5.8 14.7-20.5 42-2 .4.1 6.4 7.2 5.9 7.7z"/><path fill="#241F20" d="M398.2 451c-2.3-.7 1.9-16.3 29-14.4 7 .5 18.1 2.9 21.7 8.9 7.7 13.2 5.4 13.9-3.1 4.4-6.7-7.6-32.9-8.8-43.3-2.3-3 2.3-3.6 3.6-4.3 3.4zm51.4 11.4c-4.9 1.6-7.1.7-26.4.7-8.7 0-19.4.8-23.2-7.1-.5-1.1-.9-2.1-1.1-2-.3.1 0 1.9.1 2.4 2.2 9.4 15.6 9.3 24.2 9.3 3.4 0 17.3-.1 20.6-.5 5.7-.7 8.2-3.2 7.9-3.5 0-.2-.7.3-2.1.7z"/><g><path fill="#A60000" d="M581 389.1c-35.8 8-59.5 30-59.5 49.1 0 57.2 129.6 131 129.6-28.8 0-15.6-34.3-28.3-70.1-20.3z"/><pattern id="eye_n" patternTransform="translate(-111491.352 52348.281) scale(.3974)" xlink:href="#eye_m"/><path fill="url(#eye_n)" d="M581 389.1c-35.8 8-59.5 30-59.5 49.1 0 57.2 129.6 131 129.6-28.8 0-15.6-34.3-28.3-70.1-20.3z"/><path fill="#303030" d="M657.6 384.7c-2.3 0-1.5 6.3-13.9 20.8-18.2-24.4-99.8-13.1-114.7 25.1-61.4-15.5-148.3-78.9-173.5-110.7-2.1-2.6-4.9 3.6-2 7 42.8 50.6 139.9 101.5 174.1 109.9-3.9 47.5 115 125 117.6-22.4 0-3.5 6.6-7.6 12.5-20.8 2-4.3 1.2-8.9-.1-8.9z"/><path fill="#F4F2F2" d="M608.5 461.8c12 6.4 11.4 6.1 11.6 6.1 3.3.2 4.3 0 4.4 1.2.1 2-2.2 6.7-3.6 4.9-3.3-4.1-.2-1.8-13.9-9.1l1.5-3.1zm-7.1-1.8c-7 12.8 8.8 24.6 17.7 13.9l-1.4-1.8c-1.9 2.6-5.1 3.2-8.3 1.5-7.2-3.9-3-10.8-1.2-14.9.9-1.9-4.1-3.7-6.8 1.3zm-.5-2.3c-35.7-20.2-42.6-37.2-42.6-37.2.6 20.8 26 32.3 40.9 40.2.4-1 1-2.1 1.7-3zm-26.5 4.1c-12 6.4-11.4 6.1-11.6 6.1-3.3.2-4.3 0-4.4 1.2-.1 2 2.2 6.7 3.6 4.9 3.3-4.1.2-1.8 13.9-9.1l-1.5-3.1zm.7-4.4c-1 .7-.3 1.5 2.1 6.8 3.3 7.4-7.4 14.3-11.9 7.9l-1.4 1.8c1.8 2.1 6.2 6.1 12.8 3.1 12.1-5.8 4.9-23.9-1.6-19.6zm8.6-.7c-2.4 1.4-1.8.5-.7 2.5 1 1.9-.2 2 4.8-.6-1.5-.6-2.9-1.3-4.1-1.9zm11.6-7.2c1.8.8 3.7 1.7 5.1 2.3 10.5-6.3 23.7-16.8 24.1-31.3.1 0-5 12.6-29.2 29zm10.1-17.5c.1.1.4-.5-3.9 4.5-4.3-1.6-3.1-2.3-4.2 2.8-1.3 0-1 .5-.9-1.8-.8 2.2-.4 1.8-1.8 1.8-.1-2.4.1-2.4-.6 0-1.6 0-1.1.4-1.7-1.9-.5 2.3-.1 1.9-1.6 1.9-.7-2.4-.5-2.4-.6 0-1.3 0-.9.4-1.7-1.8.1 2.3.4 1.8-.9 1.8-1-5 .2-4.4-4.2-2.8-4.9-5.8-5-3.6.1-7.9-4.2-10.6-.3-1.5-2.2.1-1.2-1.9-1.5-3.3-1.5-5.5 0-15.9 25.2-15.9 25.2 0 0 2.2-.3 3.6-1.5 5.5-1.9-1.6 2-10.7-2.2-.1 4.1 3.4 4.2 3.5 4.2 3.4zm-14.5-.8c0-.8-1.1-2.7-3.8-3.3-2.7-.7-3.1 3.3-1.4 4.5 1.6 1.2 5.2.7 5.2-1.2zm1.3 1.8c-.3.3-1.3 2.2 0 2.7V433zm.5 0v2.7c.3-.1 1.3-1.2 0-2.7zm5.1-5.1c-2.7.7-3.8 2.6-3.8 3.3 0 1.9 3.6 2.4 5.2 1.2 1.7-1.2 1.4-5.2-1.4-4.5z"/></g><pattern id="hair_g" width="28.8" height="28.8" x="250" y="750" overflow="visible" patternUnits="userSpaceOnUse" viewBox="1.4 -30.2 28.8 28.8"><defs><path id="hair_a" d="M1.4-30.2h28.8v28.8H1.4z"/></defs><clipPath id="hair_b"><use overflow="visible" xlink:href="#hair_a"/></clipPath><g class="hair_shadow" clip-path="url(#hair_b)"><path d="M30.2 0c.8 0 1.4-.6 1.4-1.4s-.6-1.4-1.4-1.4-1.4.6-1.4 1.4c0 .8.6 1.4 1.4 1.4zM15.8 0c.8 0 1.4-.6 1.4-1.4s-.6-1.4-1.4-1.4c-.8 0-1.4.6-1.4 1.4 0 .8.6 1.4 1.4 1.4zM30.2-14.4c.8 0 1.4-.6 1.4-1.4s-.6-1.4-1.4-1.4-1.4.6-1.4 1.4c0 .8.6 1.4 1.4 1.4zM15.8-14.4c.8 0 1.4-.6 1.4-1.4s-.6-1.4-1.4-1.4c-.8 0-1.4.6-1.4 1.4 0 .8.6 1.4 1.4 1.4zM8.6-7.2c.8 0 1.4-.6 1.4-1.4S9.4-10 8.6-10c-.8 0-1.4.6-1.4 1.4 0 .8.6 1.4 1.4 1.4zM23-7.2c.8 0 1.4-.6 1.4-1.4S23.8-10 23-10s-1.4.6-1.4 1.4.6 1.4 1.4 1.4zM8.6-21.6c.8 0 1.4-.6 1.4-1.4s-.6-1.4-1.4-1.4c-.8 0-1.4.6-1.4 1.4 0 .8.6 1.4 1.4 1.4zM23-21.6c.8 0 1.4-.6 1.4-1.4s-.6-1.4-1.4-1.4-1.4.6-1.4 1.4c0 .8.6 1.4 1.4 1.4z"/><g><path d="M1.4 0c.8 0 1.4-.6 1.4-1.4s-.6-1.4-1.4-1.4C.6-2.9 0-2.2 0-1.4 0-.6.6 0 1.4 0zM1.4-14.4c.8 0 1.4-.6 1.4-1.4s-.6-1.4-1.4-1.4-1.4.6-1.4 1.4.6 1.4 1.4 1.4z"/></g><g><path d="M30.2-28.8c.8 0 1.4-.6 1.4-1.4s-.6-1.4-1.4-1.4-1.4.6-1.4 1.4c0 .8.6 1.4 1.4 1.4zM15.8-28.8c.8 0 1.4-.6 1.4-1.4s-.6-1.4-1.4-1.4-1.4.6-1.4 1.4c0 .8.6 1.4 1.4 1.4z"/></g><path d="M1.4-28.8c.8 0 1.4-.6 1.4-1.4s-.6-1.4-1.4-1.4C.6-31.7 0-31 0-30.2c0 .8.6 1.4 1.4 1.4z"/></g></pattern><pattern id="hair_e" width="28.8" height="28.8" x="250" y="750" overflow="visible" patternUnits="userSpaceOnUse" viewBox="1.4 -30.2 28.8 28.8"><defs><path id="hair_c" d="M1.4-30.2h28.8v28.8H1.4z"/></defs><clipPath id="hair_d"><use overflow="visible" xlink:href="#hair_c"/></clipPath><g clip-path="url(#hair_d)"><g fill="#FFF"><path d="M30.2 0c.8 0 1.4-.6 1.4-1.4s-.6-1.4-1.4-1.4-1.4.6-1.4 1.4c0 .8.6 1.4 1.4 1.4zM15.8 0c.8 0 1.4-.6 1.4-1.4s-.6-1.4-1.4-1.4c-.8 0-1.4.6-1.4 1.4 0 .8.6 1.4 1.4 1.4zM30.2-14.4c.8 0 1.4-.6 1.4-1.4s-.6-1.4-1.4-1.4-1.4.6-1.4 1.4c0 .8.6 1.4 1.4 1.4zM15.8-14.4c.8 0 1.4-.6 1.4-1.4s-.6-1.4-1.4-1.4c-.8 0-1.4.6-1.4 1.4 0 .8.6 1.4 1.4 1.4zM8.6-7.2c.8 0 1.4-.6 1.4-1.4S9.4-10 8.6-10c-.8 0-1.4.6-1.4 1.4 0 .8.6 1.4 1.4 1.4zM23-7.2c.8 0 1.4-.6 1.4-1.4S23.8-10 23-10s-1.4.6-1.4 1.4.6 1.4 1.4 1.4zM8.6-21.6c.8 0 1.4-.6 1.4-1.4s-.6-1.4-1.4-1.4c-.8 0-1.4.6-1.4 1.4 0 .8.6 1.4 1.4 1.4zM23-21.6c.8 0 1.4-.6 1.4-1.4s-.6-1.4-1.4-1.4-1.4.6-1.4 1.4c0 .8.6 1.4 1.4 1.4z"/></g><g fill="#FFF"><path d="M1.4 0c.8 0 1.4-.6 1.4-1.4s-.6-1.4-1.4-1.4C.6-2.9 0-2.2 0-1.4 0-.6.6 0 1.4 0zM1.4-14.4c.8 0 1.4-.6 1.4-1.4s-.6-1.4-1.4-1.4-1.4.6-1.4 1.4.6 1.4 1.4 1.4z"/></g><g fill="#FFF"><path d="M30.2-28.8c.8 0 1.4-.6 1.4-1.4s-.6-1.4-1.4-1.4-1.4.6-1.4 1.4c0 .8.6 1.4 1.4 1.4zM15.8-28.8c.8 0 1.4-.6 1.4-1.4s-.6-1.4-1.4-1.4-1.4.6-1.4 1.4c0 .8.6 1.4 1.4 1.4z"/></g><path fill="#FFF" d="M1.4-28.8c.8 0 1.4-.6 1.4-1.4s-.6-1.4-1.4-1.4C.6-31.7 0-31 0-30.2c0 .8.6 1.4 1.4 1.4z"/></g></pattern><path class="hair_fill" d="M500 215c0 14.5 3.5 20.5 3.8 22.1.8 4.3-14.2 7.3-18.2 7.3-5 0-10.2-2.8-15.6-2.8-4.1 0-4.7 1.4-8.5 1.4-6 0-12.7-4.1-12.7-9.8 0-3.9 2.7-7 4.8-10.2-5.9-1.5-10.3-5.2-10.3-10.3 0-10.9 11-8.1 16-10.7 3.7-1.9 3-10.5 11.3-10.5 7 0 14.2 9.2 16.9 14 9.6 2.1 12.5 5.4 12.5 9.5zm9.9 17.9c0 1.8-.7 3.5-.7 5.1 0 3.7 5.1 6.4 8.7 6.4 4.6 0 9.4-2.8 14.2-2.8 3.7 0 4.3 1.4 7.8 1.4 12.9 0 11.6-12.7 11.6-9.8 0-3.9-2.5-7.1-4.4-10.2 5.4-1.5 9.5-5.2 9.5-10.3 0-10.9-10.1-8.1-14.7-10.7-3.4-1.9-2.8-10.5-10.4-10.5-6.4 0-13 9.2-15.4 14-21.3 5.1-6.2 18.7-6.2 27.4zm-88.7-20.3c-7.7 0-15 5.3-15 13.9-6.6 4.6-16.6 10.3-16.6 19.4 0 2.9 1.3 6 1.4 6-3.1 4.9 3 2.9-7.5 2.9-11.3 0-16.6 4.7-16.3 17.4-20.9-.9-25.1 15.4-14.2 32.3-10.3 6.8-24.3 23.7-24.3 37 0 6.7 4.7 10.4 6.8 16-22.9 13.6-5.2 24-5.2 36.4 0 6.1-3.7 10.8-3.7 16 0 5.9 7.2 14.2 13.2 14.9 6.7-12.6 23.5-16.5 23.5-33.5 0-7.4-6-14.1-6-21.4 0-10.9 21.4-26.2 21.4-35.4 0-1.1-5.4-12.7-7.9-12.7-2.8 0-3.9 2.1-6.2 2.9 9.7-30.3 43.2-29.8 43.2-41.1 0-3.6-6.5-5.6-17.8-6 13.1-10.5 21.2-4.4 30.7-4.4 15.3 0 3.8-11.1-9.3-19.1 1.8-1.9 4.1-5.3 7.5-11.1 7.1 3.6 10.1 16.4 15.6 16.4 3.5 0 5.6-6.8 9.1-8.2 2.7-1.1 9.3.3 9.3-3.9 0-3.9-5.7-7.4-7-10.6-.2-.3-3.7-24.1-24.7-24.1zm133 23.9c-1.4 3.2-7 6.7-7 10.6 0 4.2 6.6 2.8 9.3 3.9 3.4 1.4 5.5 8.2 9.1 8.2 5.5 0 8.5-12.8 15.6-16.4 3.4 5.8 5.7 9.2 7.5 11.1-7.1 4.3-16.6 11.1-16.6 16.6 0 5 18.3.7 22.3.7 4.6 0 9.6 1.3 15.6 6.2-11.3.4-17.8 2.4-17.8 6 0 11.3 33.5 10.9 43.2 41.1-2.3-.9-3.4-2.9-6.2-2.9-2.5 0-7.9 11.7-7.9 12.7 0 9.2 21.4 24.5 21.4 35.4 0 7.3-6 14-6 21.4 0 17 16.9 20.8 23.5 33.5 6-.7 13.2-9 13.2-14.9 0-5.2-3.7-9.9-3.7-16 0-12.4 17.7-22.8-5.2-36.4 2.1-5.6 6.8-9.3 6.8-16 0-13.3-14-30.2-24.3-37 10.3-16.2 7.2-32.4-12.5-32.4-2.1 0-1.7.3-1.7-.9 0-14.9-8.4-17.5-22.9-16-.1-2.5-1.2-3.3-.9-3.3 5.2-11.9-5.4-18.6-15.2-25.4-.1-8.7-7.3-13.9-15-13.9-21 .2-24.5 24-24.6 24.1z"/><pattern id="hair_f" patternTransform="matrix(.5055 -.0419 .04172 .5078 -3711.05 -4398.883)" xlink:href="#hair_e"/><path fill="url(#hair_f)" d="M345 333.5c2.3-2.5 2.2-6.1 3.9-9 2.9-5.2 16.1-15.4 6.9-15.4-2.9 0-20.2 22.2-20.2 24.5 0 1.3.3 2.8 1 4.6 2.9-1.5 6-2.1 8.4-4.7zm4 50.9c-6.6 5.8-14.6 17.2-15 25.8 12.3-14 14-1.8 15-25.8zm32.5-99.8c-4.1-.7-6.5 2.2-10.3 2.2-4.4 0-6.6-4.3-10-4.3-3.5 0-8.7 5.1-7.7 10.2 13.4 2.1 17.9 2.1 28-8.1zm24.4-21.3c-.8-1.1-17.5-3.9-22-3.9-3.1 0-7.5 2.3-9.4 5.8 12.4 3.9 19.3 2.6 31.4-1.9zm257.5 75c.7-1.8 1-3.3 1-4.6 0-2.3-17.3-24.5-20.2-24.5-9.2 0 3.9 10.2 6.9 15.4 1.6 2.9 1.5 6.5 3.9 9s5.5 3.1 8.4 4.7zm2.6 71.9c-.4-8.6-8.3-20-15-25.8 1 24 2.7 11.8 15 25.8zm-19.4-117.5c1-4.9-4.1-10.2-7.7-10.2-3.5 0-5.7 4.3-10.1 4.3-3.8-.1-6.2-2.9-10.2-2.2 10 10.2 14.5 10.2 28 8.1zm-21.1-27.5c-1.9-3.5-6.3-5.8-9.4-5.8-4.5 0-21.2 2.8-22 3.9 12.1 4.5 19 5.8 31.4 1.9zm-220.6-29.3c-6.5-.1-8.5 5.4-6.4 11.2 7.5-2.5 4.1-9.7 6.4-11.2zm18.4-4.4c4.9 9.9.4 16.7 18.1 13.7 1.5-3.8-9.3-7.9-11.3-10.1 1.9-11.1-4-13.3-15.2-12.9 2.7 3.4 6.4 5.2 8.4 9.3zm59.5 5.4c-4.4-5.7-11.1-5.3-17.5-7.4-.6-4.6-2.3-7.6-6.9-7.4-3.9 22.8 10 14.2 24.4 14.8zm3.9-28.1c-6.2 8.5-.4 11.6 2.6 20 4.1-7.5 4.2-14.7-2.6-20zm40.1 29.2c5.4-4.4-5.8-14.2-10.5-18.8 1.4-3.8.2-6.7-3.8-7.8 2.7 11.8 2.2 21.3 14.3 26.6zm14.1-.8c3.3-4 .8-7.6-.9-11.8 2.7-4.1 10.4-8.2 6.9-13.5.1-.1-8 5.4-8 14.1 0 3.2.8 6.8 2 11.2zm22.8 13.8c8.2-.1 7.1-11.5 10.2-16.2 2-3.1 8.6-5.8 8.6-10 0-8.7-19-7.8-19 22.4 0 1.5.1 2.8.2 3.8z"/><pattern id="hair_h" patternTransform="matrix(.3974 0 0 -.3974 -97530.688 -48604.73)" xlink:href="#hair_g"/><path fill="url(#hair_h)" d="M330.6 396.8c0-.1 15.3-29.2 15.4-29.3 3-3.1 15.8-2 20.8-19.9-9 8.7-40.3 8.6-36.2 49.2zm37-95.8c8.1-9.6 23.8-4.8 32.2-14.4-8.7 1.9-3.9 1.8-14.7 1.8-12.1 0-19.4 9.3-19.7 9.4-4.4 1.7-8.6.2-12.8 3 1.4 6.4 1 2.1 15 .2zm4.3-24.4c2.9-.4 5.5-1.4 8.3-1.4 3.3 0 4.3 1.4 6.5 1.4 3.1 0 6.5-5.5 21.3-5.5 4.7 0 9.4 1.1 14 .4-19.3-8.2-13.3.4-33.6.4-27.2-.1-19.3-4.4-16.5 4.7zm104.7-53.1c-3.5-9.4 1.1-15.4 1.1-18.2 0-3.2-3.9-4.6-6.8-4.6-5.1 0-3.6 7-7.6 7-3.1 0-10.3-3.6-10.3 1.2 0 11.5 8.6 7.7 11.4 7.7 3.8-.1 9.9 3.1 12.2 6.9zm56.9 6c0-4.1-1.1-8-1.1-12.3 0-5 4.4-9.7 4.4-13.6 0-2.2-3.3-5-5.2-7.7-6.1 3.4-5.8 10.2-5.8 20.7 0 7.3 7.4 2.4 7.4 13.4 0 2.6-.6 2.8-.6 3.7 0 2.1.9-.9.9-4.2z"/><path class="hair_outline" d="M359.7 331.3c-.2.6-3.2-.2-5.8.3-9.4 1.3-.1 16.9-11.7 23.5-3.2 1.9-8.6 2.5-4.9.3 14.2-8.8 3.6-22.1 12.9-25.7 4.4-1.7 9.8.9 9.5 1.6zm-26 58.5c3.5-6.4 9.1-7.9 10.5-12.7.9-3.6-.1-9 7-11.3 3.1-1 5.4-1.3 5.4-1.9 0-1.1-12-2.2-14.6 6.3-1.9 5.5.6 5.1-3.9 9.9-2.5 2.6-5.3 5.1-5.7 9.3-.1 2.1.3 2.3 1.3.4zm50.1-97.2c-7.7.8-12.6 1-17.4 7-11.5 3.1-13.6 7.4-13.4 7.7.7 1 6.5-4 14.1-4.3 1.7-.1.4.2 3-2.4 5.1-5 20.7-6 19.6-8.3-.2-.5-2.3 0-5.9.3zm-14.3-18.1c4.9 7.2 2.8.6 15.4 3.1 4.6.9 4.1-.5.9-2.3-6.4-3.6-12.3-.6-12.4-.6 0 0-6.8-4.5-3.9-.2zm35.8-22.9c-2.3.3-3.8 1.6-4 1.6-3.2-1.6-5.6-2-8.7 0-2.7 1.8-3.1 3.1 1 2.3 1.9-.4 3.4-.6 5.2.3 3.9 1.8 1 2.9 5.7-.8 2.2-1.8 3.2-2 3.3-2.5-.1-.6-1-1.1-2.5-.9zm13.2-15.9c-1.2-7.2-10.9-10.6-11.6-9.3-.6 1 3.6 3.9 5.9 6 3.6 3.4 4.1 6.3 5.1 6.2.4-.1.8-1.2.6-2.9zm223.9 95.8c8.9-.3 8.5 2.1 9.1 10 1 15.5 12.8 15.8 12.9 15.1.1-.4-1.3-1.1-2.9-2.1-11.9-8.5-1.6-25.7-14.9-25.4-3.3.1-8.8 2.6-4.2 2.4zm25.6 57.9c-.6-6.5-7.6-9.7-8.4-13.2-.5-2.1-.2-9.2-6.7-12-4.1-1.5-9.1-1.2-9.1-.4 0 1.3 9.6.9 11.4 7.4.8 2.7.5 5 1.6 7.1 2.3 4.2 6.7 5.4 10 11.4.9 2 1.3 1.8 1.2-.3zm-37.1-88.2c1.7 2 1.1 1.7 3.1 1.8 6.3.2 12.8 5.2 13.4 4.3.4-.6-5.8-7.1-13.4-7.6-.2-.1-2.5-4.7-10.9-6.3-.6-.1-12.2-1.5-12.4-1-1.3 2.5 15.6 2.8 20.2 8.8zm-1.2-28.1c-4.1 2-1.4 1.9-4.4 1-7.5-2.2-13.7 2.6-13.1 3.6.7 1.3 5.4-2 13.4-.1 2.3.6 1.5.9 2.8-.2 2.7-2.2 4.9-6.1 1.3-4.3zm-35.3-19.5c6.5 4.4 2.8 4.5 6.9 2.2 3.6-2 7.9.7 8.5-.4.6-1.1-5-5.7-10.2-2.7-.9.6-.1.4-2-.5-3-1.4-4.9-.6-4.8 0 0 .5.7.8 1.6 1.4zm-10.1-17.1c2.5-4.1 5.2-5.5 7.7-7.9 2.7-2.5 1.7-3.2-1.3-2.1-10.8 3.9-10.4 16.4-6.4 10zm-95.7-2.9c-1.7-5.7-11.9-6.6-11.4-7.1.8-.5.8-7.1-4.7-9.8-3.8-1.9-8.3-1.4-11.1.3-3.7 2.3 1.5.9 4.4 1 4.7.3 8.8 2.8 8 7.7-.6 3.6-2.5 3 3.2 4.3 12.2 2.8 10.5 5.5 11.6 5 .2-.1.2-.5 0-1.4zm38.2-11.3c5.8 6.4 3.8 15 5.1 15.4 1.6.5 4.4-8.7-.7-14.9-2.6-3.2-6.1-3.6-6.3-2.9-.2.4.7 1.1 1.9 2.4zm-3.2-14.4c-.3 20.2 3.7 6.7 3.6 4.2-.1-4.9-3.5-9.2-3.6-4.2zm12.5-1.4c-4.7 3-3.2 10.9-1.4 10.6 1-.2 1.2-2.9 1.9-5.5.6-2 3.9-8-.5-5.1zm-56.2-4.2c-4.4 4-3.4 14.3-1.8 14.3 1.7.1 1.8-8.4 3.8-12.9.5-1.2 1-2.1.6-2.5-.3-.3-1.4-.1-2.6 1.1z"/></svg>