<?xml version="1.0" encoding="utf-8"?>
<!-- Generator: Adobe Illustrator 23.0.4, SVG Export Plug-In . SVG Version: 6.00 Build 0)  -->
<svg version="1.1" id="Hair_Color" xmlns="http://www.w3.org/2000/svg" xmlns:xlink="http://www.w3.org/1999/xlink" x="0px" y="0px"
	 width="500px" height="500px" viewBox="0 0 500 500" style="enable-background:new 0 0 500 500;" xml:space="preserve">
<style type="text/css">
	.st0{fill:#B18A76;}
	.st1{fill:#846653;}
</style>
<g id="Hair_Color_1_">
	<g id="Hair_Color_2_">
		<g id="Hair_Color_3_">
			<path id="Hair_Color_4_" class="st0" d="M361.4,217.4L334.6,139h-84.3h-84.2l-26.9,78.4l-1.1,59l-14.6-66.5
				c0,0-22-16.8-14.7-41.4c0,0-25-71.8,46.3-124.2l-42.3-15.8c0,0,42.4-2.1,65-12.4c36.5-16.6,172-44,172,65.1
				c0,0,72.4,34.9,50.8,110.3c0,0-2.2-34.9-11.9-46.9c0,0,8,49.1-11.4,65.4l-14.9,66.4L361.4,217.4z"/>
			<g id="Hair_Color_5_">
				<path class="st0" d="M244.1,139.1c0,0-24.3-35.2-26.1,6.4c-1.8,41.2,27.8,48,27.8,48s-21.4-32.3-8.4-54.3L244.1,139.1
					L244.1,139.1z"/>
			</g>
			<g id="Strands">
				<path class="st1" d="M388.5,142.4c-0.2-0.7-0.4-1.6-0.6-2.6c-0.1-0.5-0.3-1-0.4-1.6c-0.2-0.6-0.4-1.2-0.6-1.8
					c-0.4-1.2-0.9-2.6-1.4-4c-0.6-1.5-1.3-2.9-2-4.5c-1.5-3.1-3.4-6.4-5.7-9.7c-4.6-6.5-10.1-11.4-14.5-14.2
					c-4.4-2.9-7.6-3.7-7.8-3.2c-0.2,0.5,2.6,2,6.4,5.2c3.8,3.1,8.7,8,13.1,14.2c2.2,3.1,4.1,6.2,5.7,9.1c0.8,1.5,1.5,2.9,2.2,4.2
					s1.2,2.6,1.8,3.7c0.3,0.5,0.6,1.1,0.8,1.6s0.4,1,0.6,1.5c0.4,0.9,0.8,1.7,1.1,2.3c0.7,1.3,1.2,2,1.4,1.9
					C388.8,144.4,388.8,143.6,388.5,142.4z"/>
				<path class="st1" d="M186.1,15.1c5.2-0.8,12.9-2,22.3-3c9.4-1.1,20.7-1.9,33.2-2s26.3,0.6,40.4,3.4c7,1.4,13.8,3.3,20.1,5.7
					s12.2,5.4,17.3,8.8c5.2,3.4,9.6,7.3,13.2,11.4c3.7,4.1,6.4,8.5,8.6,12.6c2.1,4.1,3.6,8.1,4.7,11.7s1.8,6.7,2.3,9.3
					c0.2,1.3,0.4,2.5,0.6,3.5c0.2,1.1,0.3,1.9,0.4,2.6c0.2,1.4,0.4,2.1,0.5,2.1s0.2-0.8,0.4-2c0-0.7-0.1-1.6-0.1-2.6
					c0-1.1-0.2-2.3-0.3-3.6c-0.3-2.7-0.9-6-1.8-9.7c-1-3.7-2.3-7.9-4.4-12.3s-4.9-9-8.6-13.4s-8.3-8.5-13.6-12.2
					c-5.3-3.6-11.3-6.8-17.8-9.3s-13.5-4.5-20.7-5.9c-14.4-2.8-28.4-3.4-41.1-3.2c-12.7,0.2-24,1.4-33.5,2.7
					c-9.5,1.4-17.1,2.9-22.3,4.1s-8.1,2.2-8,2.4C177.9,16.4,180.8,15.9,186.1,15.1z"/>
				<path class="st1" d="M118.8,123.3c2-3.4,4.2-6.9,6.8-10.4s5.5-7.1,8.7-10.6c3.2-3.6,6.8-6.9,10.6-10.2
					c7.7-6.5,15.9-11.6,23.8-15.4s15.4-6.2,21.8-7.9c1.6-0.4,3.1-0.7,4.6-1.1c1.4-0.4,2.8-0.5,4.1-0.8s2.5-0.5,3.6-0.7
					c1.2-0.3,2.2-0.4,3.1-0.5c3.7-0.5,5.7-0.9,5.7-1s-2.1,0-5.5,0.5c-0.9,0.1-2,0.1-3.1,0.3c-1.2,0.1-2.4,0.3-3.7,0.5
					s-2.7,0.4-4.2,0.7s-3.1,0.6-4.7,1c-6.5,1.5-14.2,3.8-22.2,7.6c-8.1,3.8-16.4,8.9-24.3,15.5c-3.9,3.4-7.6,6.8-10.8,10.4
					c-3.2,3.5-6.1,7.2-8.7,10.8c-2.6,3.6-4.8,7.2-6.8,10.6c-1.9,3.4-3.6,6.6-5,9.7c-2.8,6.1-4.5,11.2-5.6,14.8s-1.4,5.7-1.3,5.7
					s0.7-2,1.9-5.5c1.2-3.5,3.2-8.6,6.1-14.5C115.1,129.8,116.8,126.7,118.8,123.3z"/>
				<path class="st1" d="M144,142.2c4-4,8-7.2,11.4-9.8c7-5,11.8-7.4,11.6-7.7c-0.1-0.1-1.3,0.4-3.5,1.5c-2.1,1.1-5.2,2.8-8.8,5.2
					s-7.7,5.6-11.8,9.6c-4.2,4-8.3,8.8-12.1,14.3c-7.5,11-11.9,22.3-14.1,30.7c-1.1,4.1-1.8,7.6-2.1,10c-0.3,2.4-0.3,3.8-0.2,3.8
					c0.1,0.1,0.4-1.3,0.9-3.6s1.3-5.7,2.6-9.8c2.5-8.2,7-19.3,14.4-30.1C136,151,140,146.2,144,142.2z"/>
				<path class="st1" d="M368,121.4c-4.7-5.9-9.8-10.4-13.8-13.3c-1-0.7-1.9-1.3-2.7-1.9c-0.8-0.5-1.5-1-2.1-1.3
					c-0.1-0.1-0.2-0.1-0.3-0.2c1-5.6,1.5-10.6,1.6-14.5c0.1-2.8-0.1-5.1-0.3-6.6c-0.1-1.6-0.4-2.4-0.6-2.4c-0.8,0.1-1,6.4-2.6,15.5
					c-0.1-0.5-0.1-1-0.1-1.6c-0.4-3-1-6.5-2.1-10.6s-2.7-8.6-5.1-13.4s-5.7-9.7-10-14.3c-2.1-2.4-4.6-4.5-7.2-6.6s-5.5-4-8.6-5.7
					c-6.2-3.5-13.1-6.2-20.5-8.1c-3.7-1-7.5-1.8-11.4-2.4c-3.9-0.7-7.9-1.2-11.9-1.5c-16.1-1.3-31.5-0.5-45.3,0.8
					s-26.2,3.2-36.5,4.9c-10.3,1.8-18.6,3.3-24.4,4.3c-5.7,1.1-8.9,1.7-8.9,1.9c0,0.3,3.3,0.1,9.1-0.5c5.8-0.7,14.2-1.8,24.6-3.2
					c10.3-1.4,22.7-3.1,36.4-4.2c13.8-1.1,28.9-1.8,44.7-0.5c15.7,1.3,30.6,4.8,42.5,11.3c2.9,1.6,5.7,3.4,8.3,5.3
					c2.5,1.9,4.9,3.9,7,6.1c4.2,4.2,7.4,8.9,9.9,13.4s4.2,8.9,5.4,12.8c1.2,3.9,2,7.4,2.6,10.2c0.3,1.4,0.5,2.7,0.7,3.8
					c0.1,0.4,0.2,0.9,0.2,1.2c-0.1,0.5-0.2,1-0.3,1.4c-0.1-0.2-0.2-0.3-0.3-0.5c-1.1-1.7-2.8-4.2-5.1-7.2c-1.2-1.5-2.5-3.2-4.1-4.9
					c-0.7-0.8-1.5-1.8-2.4-2.7c-0.8-1-1.8-1.9-2.7-2.9c-3.8-3.9-8.5-8.1-14-12.2c-5.6-4.2-12-8.2-19.2-11.9
					c-7.3-3.6-15.3-6.9-24.1-9.4c-17.5-5.1-37.8-7.3-58.8-5.2s-40.5,8.2-56.6,16.8c-16.2,8.6-28.8,19.7-37.2,30.7
					c-8.6,11-12.9,21.6-15,28.9c-0.2,0.9-0.5,1.8-0.7,2.6s-0.3,1.6-0.5,2.3c-0.3,1.5-0.6,2.7-0.7,3.7c-0.3,2-0.4,3.1-0.3,3.1
					c0.3,0,1-4.1,3.5-11.3c2.5-7.1,7.1-17.2,15.6-27.7c8.6-10.3,21-21,36.9-29.2c15.8-8.2,34.9-14.1,55.4-16.2s40.3,0,57.5,4.8
					c8.6,2.3,16.5,5.5,23.7,8.9c7.2,3.5,13.5,7.4,19,11.3s10.2,7.9,14.1,11.6c1,0.9,1.9,1.8,2.8,2.7c0.9,0.9,1.7,1.8,2.5,2.6
					c1.6,1.7,2.9,3.3,4.2,4.7c2.5,2.9,4.4,5.2,5.6,6.8c0.3,0.3,0.5,0.6,0.7,0.9c-0.5,2.4-1.1,4.9-1.8,7.5c-0.2-0.3-0.4-0.7-0.6-1.1
					c-0.6-1.1-1.6-2.4-2.6-3.9c-0.5-0.7-1.2-1.5-1.8-2.3c-0.7-0.8-1.3-1.7-2.1-2.5c-3-3.5-7-7.4-11.8-11.2
					c-4.8-3.8-10.5-7.5-16.8-10.7c-12.6-6.5-25-10-34-11.9c-4.5-0.9-8.2-1.4-10.8-1.7c-2.6-0.2-4-0.2-4-0.1s1.4,0.3,3.9,0.8
					s6.2,1.2,10.6,2.3c8.8,2.2,21,5.8,33.4,12.2c6.2,3.2,11.8,6.7,16.6,10.4c4.7,3.6,8.7,7.3,11.8,10.7c4,4.3,6.5,7.8,7.9,9.8
					c-1.4,5.5-3.1,10.5-4.7,14.7c-0.6-1.9-2.1-4.3-4.6-6.8c-4.9-5.1-13.5-10.9-24.9-16.2s-25.6-10.2-42-13.2
					c-16.3-3-34.8-4.2-53.9-1.7c-4.8,0.6-9.4,1.5-14,2.5c-4.6,1.1-9,2.3-13.3,3.8c-8.6,2.9-16.6,6.7-23.8,10.9
					c-14.4,8.6-25.4,19.1-33.4,28.8s-13.1,18.5-16.4,24.7c-0.8,1.6-1.5,3-2.1,4.2s-1,2.3-1.4,3.1c-0.8,1.7-1.1,2.6-1,2.7
					c0.1,0.1,0.7-0.7,1.6-2.3c0.5-0.8,1-1.7,1.7-2.9s1.5-2.5,2.4-4c3.6-5.9,9-14.5,17.1-23.8c8.1-9.4,19-19.5,33.2-27.5
					c7-4.1,14.8-7.7,23.2-10.5c4.2-1.4,8.5-2.7,13-3.7s9-1.9,13.7-2.5c18.7-2.5,36.8-1.4,52.9,1.4c16.1,2.9,30.2,7.4,41.6,12.3
					c11.3,4.9,19.9,10.3,25,14.9c2.5,2.3,4.1,4.4,4.9,6c0.1,0.2,0.1,0.4,0.2,0.5c-2.6,7.1-4.8,11.8-4.7,12.6
					c-0.4-0.4-3.8-1.8-9.4-4.1c-1.6-0.6-3.3-1.2-5.2-1.9c-1.9-0.7-4-1.4-6.2-2.1c-2.3-0.7-4.7-1.5-7.2-2.3c-2.5-0.7-5.2-1.5-8.1-2.3
					s-5.8-1.7-9-2.4c-3.1-0.7-6.4-1.5-9.8-2.3c-3.4-0.7-6.9-1.4-10.6-2.1c-3.7-0.6-7.5-1.1-11.4-1.7c-3.9-0.5-7.9-0.8-12-1.2
					c-2.1-0.1-4.2-0.2-6.3-0.3c-1.1,0-2.1-0.1-3.2-0.1c-1.1-0.1-2.1,0-3.2,0c-2.1,0-4.3,0.1-6.5,0.1c-2.2,0.1-4.4,0.3-6.6,0.4
					c-1.1,0.1-2.2,0.2-3.3,0.3c-1.1,0.2-2.2,0.3-3.3,0.5c-1.2,0.2-2.3,0.3-3.4,0.5l-1.7,0.2l-1.7,0.3c-18.1,3.2-34.5,10.9-46.6,21.2
					c-6.1,5.1-11.2,10.8-15.3,16.5c-4.1,5.8-7.3,11.5-9.9,16.9c-5.1,10.8-7.8,20.1-9.3,26.6c-0.7,3.2-1.2,5.8-1.5,7.5
					c-0.2,1.8-0.3,2.7-0.2,2.7s0.4-0.8,0.9-2.5c0.4-1.7,1.2-4.1,2.1-7.3c1.9-6.3,4.9-15.4,10.2-25.9c2.6-5.2,5.9-10.7,10-16.2
					s9.1-10.9,15-15.8c1.3-1.1,2.7-2.1,4.1-3.2c-0.6,0.4-2.4,4.5-5,10.7c-2.8,6.7-6.6,16-11.2,26.1c-4.6,10.1-9.2,19-13.4,24.8
					c-2.1,2.9-4,5-5.6,6.1c-1.5,1.1-2.6,1.3-2.6,1.6c-0.1,0.2,1.2,0.5,3.2-0.5c2-0.9,4.5-2.9,6.9-5.7c4.9-5.7,9.9-14.6,14.6-24.8
					s8.1-19.7,10.4-26.7c2.2-7,3.3-11.4,2.8-11.6h-0.1c0.1-0.1,0.2-0.1,0.3-0.2c-0.1,0.1-0.1,0.2-0.1,0.3c0.4,1,7.5-1.8,16.5-2
					c4.4-0.2,8.4,0.4,11.3,1.1c2.9,0.7,4.6,1.4,4.9,1c0.3-0.3-1.1-1.9-4-3.3c-2.9-1.4-7.4-2.5-12.3-2.3s-9.2,1.4-12.1,2.7
					c-0.7,0.2-1.4,0.6-1.9,0.9c6.2-4.2,13.3-7.8,20.9-10.5c3.1,0.6,8.8,1.4,15,3.6c4.6,1.6,8.3,3.8,10.9,5.7c1.3,1,2.3,1.8,3,2.3
					c0.1,0.1,0.1,0.2,0.2,0.2l0,0c0.6,0.5,1,0.7,1.2,0.6c0.3-0.1,0.1-0.8-0.4-1.8c0.4-1,0.9-2.5,1.7-4.4c0.7-1.7,1.6-3.7,3-5.2
					c0.7-0.8,1.5-1.3,2.5-1.6c0.9-0.3,2-0.2,3.2,0.1c1.1,0.3,2.2,0.9,3.3,1.5c1,0.6,2,1.3,2.9,2.1c1.8,1.5,3.3,3.1,4.5,4.5
					s2,2.6,2.6,3.4c0.5,0.8,0.8,1.3,1.1,1.3c0.2,0,0.3-0.7,0.1-1.8s-0.8-2.6-1.8-4.3s-2.4-3.6-4.3-5.4c-0.9-0.8-1.9-1.6-3-2.4
					c1.2,0.4,2.3,0.9,3.4,1.4c0.8,0.3,1.5,0.8,2.2,1.1c0.7,0.4,1.4,0.7,2,1.1c0.7,0.4,1.3,0.8,1.9,1.2c0.6,0.4,1.2,0.8,1.7,1.2
					c0.3,0.2,0.5,0.4,0.8,0.6c0.2,0.2,0.5,0.4,0.7,0.6c0.4,0.4,0.9,0.8,1.3,1.2c1.7,1.6,2.9,3,3.7,4s1.3,1.6,1.5,1.5
					s0.2-0.9-0.3-2.2s-1.4-3.1-3-5s-3.7-4-6.5-5.8c-0.7-0.5-1.5-0.9-2.2-1.3s-1.5-0.9-2.3-1.2c-1.6-0.7-3.3-1.5-5.1-2
					c-2.2-0.7-4.3-1.2-6.3-1.6c1.5,0,2.9-0.1,4.3-0.1c1,0,2.1,0,3.1,0s2.1,0.1,3.1,0.1c1.9,0.1,3.8,0.1,5.7,0.2
					c4.3,1,9.9,2.5,15.8,5c6.1,2.5,10.9,6,14.1,8.9c1.6,1.4,2.8,2.7,3.6,3.6c0.8,0.9,1.3,1.4,1.5,1.3c0.2,0,0.1-0.8-0.4-2
					c-0.6-1.2-1.5-2.8-3-4.6c-2.9-3.5-8-7.7-14.5-10.4c-0.2-0.1-0.4-0.2-0.6-0.3c1.2,0.2,2.4,0.3,3.6,0.5c4,1.1,9.8,2.6,16,5.2
					c5.7,2.2,10.4,5,13.6,7.3c1.6,1.2,2.8,2.2,3.7,2.9s1.4,1,1.6,0.9s0-0.8-0.6-1.8c-0.6-1.1-1.7-2.4-3.2-3.9
					c-2.2-2.2-5.4-4.5-9.3-6.6c0.7,0.2,1.5,0.3,2.2,0.5c3.2,0.7,6.1,1.5,9,2.2c2.9,0.8,5.6,1.4,8.2,2.1c2,0.6,3.9,1.2,5.8,1.7
					c0.1,0.2,0.2,0.5,0.4,0.8c0.5,0.7,1.4,1.6,2,2.4c0.3,0.4,0.6,0.8,0.7,1s0.2,0.4,0.3,0.7c0.1,0.5-0.1,1.2,0.2,1.6
					c0.2,0.4,1.2,0.5,2.1-0.6c0.4-0.5,0.7-1.5,0.6-2.4c-0.1-0.7-0.3-1.3-0.7-1.9c0.7,0.2,1.4,0.4,2.1,0.6c1.9,0.6,3.6,1.1,5.2,1.6
					c6.3,2,9.8,2.9,9.9,2.7c0.3,0.2,2-1.8,4.1-5.4c1.1,1,3.2,3,5.9,6c2,2.1,4.1,4.8,6.4,7.9c2.2,3.2,4.5,6.7,6.4,10.7
					c1,1.9,1.8,4,2.6,5.9c0.4,1,0.7,1.9,1,2.9s0.6,1.9,0.9,2.8c1,3.7,1.8,7.1,2.2,10c0.6,2.9,0.6,5.3,0.8,6.9
					c0.1,1.6,0.3,2.5,0.4,2.5s0.2-0.9,0.3-2.5c0-1.7,0.1-4.1-0.3-7c-0.2-2.9-0.9-6.4-1.9-10.2c-0.3-1-0.6-1.9-0.9-2.9s-0.6-2-1-3
					c-0.8-2-1.5-4.1-2.6-6.1c-1.9-4.1-4.3-7.7-6.6-10.9c-2.4-3.2-4.7-5.8-6.8-7.9c-2.9-2.8-5.3-4.7-6.6-5.5c0.3-0.5,0.6-1.1,0.9-1.6
					c1.4-2.4,2.7-5.4,4.1-8.8c0.2-0.4,0.3-0.9,0.5-1.3c1.7,1.6,5.2,4.5,9.3,9c3,3.3,6.4,7.5,9.5,12.6c3.2,5,6,10.9,8.3,17.4
					s3.7,12.9,4.5,18.8c0.9,5.9,1.2,11.3,1.2,15.8c0,1.1,0,2.2,0,3.2c-0.1,1-0.1,2-0.1,2.9s0,1.7,0,2.5c-0.1,0.8-0.1,1.5-0.1,2.1
					c-0.1,2.5,0,4,0.2,4c0.2,0.1,0.6-1.3,1.2-3.9c0.1-0.6,0.3-1.3,0.4-2.1c0.1-0.7,0.2-1.6,0.3-2.5c0.1-0.9,0.2-1.9,0.3-2.9
					c0.1-1,0.1-2.1,0.2-3.3c0.2-4.6,0.2-10.2-0.5-16.3s-2.1-12.8-4.4-19.5s-5.4-12.9-8.8-18c-3.4-5.2-7.1-9.4-10.4-12.6
					c-4.7-4.5-8.7-7-10.8-8c1.1-2.8,2.1-5.9,2.9-9.2c0.5-2,1-4.1,1.4-6l0,0c0.5,0.4,1.2,0.9,1.9,1.5c0.7,0.6,1.6,1.3,2.5,2.1
					c3.7,3.1,8.6,7.7,13.2,13.4c4.6,5.8,7.9,11.6,10.1,15.9c2.1,4.3,3.2,7.1,3.5,7c0.2-0.1-0.5-3.1-2.4-7.6
					C375.9,133.2,372.7,127.3,368,121.4z M221.5,125.6c-1.8,2.3-2.5,4.7-2.9,6.6c-0.1,0.5-0.2,1-0.3,1.4c0,0.4-0.1,0.8-0.1,1.2
					c0,0.3-0.1,0.5-0.1,0.7c-0.3-0.4-0.7-0.9-1.1-1.3c-2.4-2.6-6.4-5.5-11.4-7.2c-3.9-1.3-7.6-2-10.7-2.2c3.9-1.2,7.9-2.1,12-2.8
					l1.6-0.3l1.6-0.2c1.1-0.1,2.2-0.3,3.3-0.4c0.1,0,0.2,0,0.3,0c0.2,0,0.3,0,0.5,0c0.6,0.1,1.1,0.1,1.7,0.2
					c2.9,0.3,6.4,0.7,10.2,1.4c-0.2,0.1-0.5,0.1-0.7,0.2C223.7,123.4,222.4,124.5,221.5,125.6z"/>
				<path class="st1" d="M136.3,218.6c-0.9,0.3-1.9,0.6-3.1,0.6s-2.4-0.4-3.5-1.1c-2.2-1.5-3.5-3.9-4.5-5.5
					c-0.9-1.7-1.5-2.8-1.7-2.7s-0.1,1.3,0.5,3.2c0.4,0.9,0.8,2.1,1.6,3.2c0.7,1.2,1.7,2.4,3.1,3.3c1.4,0.9,3.1,1.3,4.5,1.2
					c1.5-0.1,2.7-0.6,3.6-1.1c1.8-1.1,2.6-2.1,2.4-2.3S138,217.9,136.3,218.6z"/>
				<path class="st1" d="M375.6,212.7c-0.9,1.6-2.2,4.1-4.5,5.5c-1.2,0.8-2.4,1-3.6,1c-1.1,0-2.2-0.3-3.1-0.6
					c-1.8-0.6-2.8-1.3-3-1.1c-0.1,0.1,0.7,1.2,2.5,2.2c0.9,0.5,2.1,1,3.5,1.1c1.5,0.1,3.2-0.2,4.6-1.1c1.4-0.9,2.5-2.1,3.2-3.3
					s1.2-2.3,1.5-3.3c0.6-1.9,0.7-3.1,0.5-3.2C376.9,209.9,376.4,211,375.6,212.7z"/>
				<path class="st1" d="M114.3,29.1c1.3,0.3,3.2,0.6,5.6,1c4.9,0.7,12.1,1.4,20.9,1.5c8.9,0.1,19.4-0.4,31-2.1
					c2.9-0.5,5.9-1,8.9-1.5c3-0.6,6.1-1.2,9.2-1.9c3.1-0.8,6.2-1.6,9.4-2.4c1.6-0.4,3.2-0.8,4.8-1.2c0.8-0.2,1.6-0.4,2.4-0.6
					c0.9-0.2,1.7-0.3,2.5-0.5c1.7-0.4,3.3-0.7,4.9-1c1.7-0.2,3.3-0.5,4.9-0.7c3.2-0.5,6.4-0.7,9.5-1.1c1.6-0.1,3.2-0.2,4.7-0.3
					c1.6,0,3.1-0.2,4.6-0.2c3-0.1,6-0.2,8.9-0.1c11.6,0.2,22,1.5,30.6,3.3c8.6,1.7,15.4,4,20,5.7c2.4,0.8,4.1,1.6,5.3,2.1
					s1.9,0.8,1.9,0.7c0,0-0.6-0.4-2.3-0.9c-1.2-0.6-2.9-1.5-5.2-2.4c-4.5-1.9-11.3-4.3-19.9-6.3c-8.6-1.9-19.1-3.4-30.8-3.7
					c-2.9-0.1-5.9,0-9,0c-1.5,0-3,0.1-4.6,0.2c-1.5,0.1-3.1,0.1-4.7,0.3c-3.1,0.3-6.4,0.5-9.6,1.1c-1.6,0.2-3.3,0.4-4.9,0.7
					c-1.6,0.3-3.2,0.7-4.9,1c-0.9,0.2-1.7,0.3-2.5,0.5s-1.6,0.4-2.4,0.6c-1.6,0.4-3.2,0.8-4.8,1.2c-3.1,0.8-6.2,1.6-9.3,2.4
					c-3.1,0.6-6.1,1.3-9.1,1.9c-3,0.5-5.9,1-8.8,1.5c-11.5,1.8-21.9,2.4-30.7,2.5c-8.8,0-15.9-0.5-20.8-1c-2.4-0.3-4.3-0.5-5.6-0.7
					c-1.3-0.2-2-0.3-2-0.2C112.4,28.6,113,28.8,114.3,29.1z"/>
				<path class="st1" d="M368.9,205c1.1,0.2,2,0,2.5-0.2c0.5-0.3,0.7-0.5,0.7-0.6c-0.1-0.3-1.2,0.2-2.8-0.4
					c-1.6-0.7-3.6-2.6-5.6-5.4c-4.1-5.5-8.5-14.1-13-23.8c-4.4-9.7-8.2-18.6-11-25.1s-4.6-10.5-5.1-10.3c-0.4,0.1,0.6,4.4,2.8,11.1
					c2.3,6.7,5.7,15.9,10.2,25.7s9.4,18.4,14.2,23.9C364.2,202.6,366.7,204.5,368.9,205z"/>
				<path class="st1" d="M231.9,130.8c0.6,0.3,1.2,0.8,1.7,1.2c0.6,0.4,1,0.9,1.5,1.3c1,0.8,1.7,1.7,2.4,2.4s1.2,1.4,1.7,1.9
					c0.9,1,1.5,1.6,1.6,1.5s-0.3-0.8-1.3-1.9c-0.4-0.6-0.9-1.3-1.5-2.1s-1.3-1.7-2.2-2.6c-0.4-0.4-0.8-0.9-1.4-1.4
					c-0.5-0.5-1-1-1.7-1.4c-0.3-0.2-0.7-0.5-1-0.7s-0.7-0.4-1.1-0.6c-0.7-0.4-1.6-0.6-2.6-0.7c-0.9,0-2,0.2-2.9,0.8
					c-0.5,0.3-0.9,0.7-1.2,1.1c-0.1,0.2-0.3,0.5-0.4,0.7l-0.3,0.6c-0.9,1.6-1.6,3.4-2.2,5.3c-2.5,7.5-3,14.7-2.8,19.8
					c0.1,2.5,0.4,4.6,0.7,6s0.6,2.1,0.7,2.1c0.1,0,0-0.8-0.1-2.2s-0.2-3.4-0.2-5.9c0.1-5,0.8-12,3.2-19.2c0.6-1.8,1.3-3.5,2.1-5.1
					c0.6-1.6,1.9-2.4,3.3-2.4C229.3,129.2,230.7,130,231.9,130.8z"/>
				<path class="st1" d="M233.9,175.2c-0.9-1.9-1.9-3.9-2.7-6c-0.9-2.1-1.6-4.4-2.2-6.7c-1.2-4.7-1.6-9.3-1.2-13.5s1.6-7.8,2.9-10.7
					c0.2-0.3,0.3-0.7,0.5-1c0-0.2,0.1-0.3,0.2-0.5l0.1-0.2c0,0,0,0,0.1-0.1c0.4-0.5,0.9-0.8,1.4-0.8c1-0.1,1.9,0.7,2.5,1.3
					c0.6,0.7,1,1.2,1.3,1.6c0.3,0.3,0.4,0.5,0.5,0.5c0.1-0.1,0-0.3-0.3-0.8c-0.2-0.4-0.5-1-1.1-1.8c-0.3-0.3-0.6-0.7-1.1-1.1
					c-0.4-0.4-1.1-0.7-1.9-0.7c-0.8,0-1.6,0.5-2.2,1.1c0,0.1-0.2,0.2-0.2,0.3l-0.1,0.2c-0.1,0.2-0.2,0.3-0.3,0.5
					c-0.2,0.4-0.4,0.7-0.6,1.1c-1.5,2.9-2.8,6.6-3.3,11s-0.2,9.2,1.1,14.1c0.6,2.4,1.4,4.7,2.3,6.9c0.9,2.2,1.9,4.2,2.9,6.1
					c2,3.8,4.2,7,6.1,9.6c3.9,5.2,6.9,8,7.1,7.8c0.1-0.2-2.5-3.2-6.1-8.5C237.8,182.2,235.8,179,233.9,175.2z"/>
			</g>
		</g>
	</g>
</g>
</svg>
